<svg xmlns="http://www.w3.org/2000/svg" version="1.1" viewBox="0 0 50 50">
  <defs>
    <style>
      .st0 {fill: #6c84ff;}
    </style>
  </defs>
  <path class="st0" d="M42.94,11.99H7.06c-2.21,0-4,1.79-4,4v22.01c0,2.21,1.79,4,4,4h35.88c2.21,0,4-1.79,4-4V15.99c0-2.21-1.79-4-4-4ZM31.37,27l13.44-11.7c.08.22.13.45.13.69v22.01c0,.24-.05.47-.13.69l-13.44-11.7ZM42.94,13.99c.1,0,.2.02.29.03l-18.23,15.87L6.77,14.02c.1-.01.19-.03.29-.03h35.88ZM5.19,38.7c-.08-.22-.13-.45-.13-.69V15.99c0-.24.05-.47.13-.69l13.44,11.7-13.44,11.7ZM7.06,40.01c-.1,0-.2-.02-.29-.03l13.39-11.65,4.19,3.65c.19.16.42.25.66.25s.47-.08.66-.25l4.19-3.65,13.39,11.65c-.1.01-.19.03-.29.03H7.06Z"/>
</svg>