<svg xmlns="http://www.w3.org/2000/svg" version="1.1" viewBox="0 0 50 50">
  <defs>
    <style>
      .st0 {fill: #6c84ff;}
    </style>
  </defs>
  <path class="st0" d="M41.78,7.24h-5.96v-1.96c0-.55-.45-1-1-1s-1,.45-1,1v1.96h-7.82v-1.96c0-.55-.45-1-1-1s-1,.45-1,1v1.96h-7.82v-1.96c0-.55-.45-1-1-1s-1,.45-1,1v1.96h-5.96c-2.21,0-4,1.79-4,4v30.48c0,2.21,1.79,4,4,4h33.55c2.21,0,4-1.79,4-4V11.24c0-2.21-1.79-4-4-4ZM8.22,9.24h5.96v2.27c0,.55.45,1,1,1s1-.45,1-1v-2.27h7.82v2.27c0,.55.45,1,1,1s1-.45,1-1v-2.27h7.82v2.27c0,.55.45,1,1,1s1-.45,1-1v-2.27h5.96c1.1,0,2,.9,2,2v3.5H6.22v-3.5c0-1.1.9-2,2-2ZM41.78,43.72H8.22c-1.1,0-2-.9-2-2v-24.98h37.55v24.98c0,1.1-.9,2-2,2Z"/>
  <path class="st0" d="M16.6,22.77h-3.49c-.55,0-1,.45-1,1s.45,1,1,1h3.49c.55,0,1-.45,1-1s-.45-1-1-1Z"/>
  <path class="st0" d="M26.75,22.77h-3.49c-.55,0-1,.45-1,1s.45,1,1,1h3.49c.55,0,1-.45,1-1s-.45-1-1-1Z"/>
  <path class="st0" d="M36.89,22.77h-3.49c-.55,0-1,.45-1,1s.45,1,1,1h3.49c.55,0,1-.45,1-1s-.45-1-1-1Z"/>
  <path class="st0" d="M16.6,29.13h-3.49c-.55,0-1,.45-1,1s.45,1,1,1h3.49c.55,0,1-.45,1-1s-.45-1-1-1Z"/>
  <path class="st0" d="M26.75,29.13h-3.49c-.55,0-1,.45-1,1s.45,1,1,1h3.49c.55,0,1-.45,1-1s-.45-1-1-1Z"/>
  <path class="st0" d="M36.89,29.13h-3.49c-.55,0-1,.45-1,1s.45,1,1,1h3.49c.55,0,1-.45,1-1s-.45-1-1-1Z"/>
  <path class="st0" d="M16.6,35.49h-3.49c-.55,0-1,.45-1,1s.45,1,1,1h3.49c.55,0,1-.45,1-1s-.45-1-1-1Z"/>
  <path class="st0" d="M26.75,35.49h-3.49c-.55,0-1,.45-1,1s.45,1,1,1h3.49c.55,0,1-.45,1-1s-.45-1-1-1Z"/>
  <path class="st0" d="M36.89,35.49h-3.49c-.55,0-1,.45-1,1s.45,1,1,1h3.49c.55,0,1-.45,1-1s-.45-1-1-1Z"/>
</svg>