<svg xmlns="http://www.w3.org/2000/svg" version="1.1" viewBox="0 0 50 50">
  <defs>
    <style>
      .st0 {fill: #6c84ff;}
    </style>
  </defs>
  <path class="st0" d="M47.4,22.67L25,2.24,2.6,22.67c-.41.37-.44,1-.06,1.41.37.41,1,.44,1.41.06l2.1-1.91v20.23c0,2.72,2.17,4.93,4.84,4.93h28.24c2.67,0,4.84-2.21,4.84-4.93v-20.23l2.1,1.91c.19.17.43.26.67.26.27,0,.54-.11.74-.33.37-.41.34-1.04-.07-1.41ZM19.57,32.04c.03-.1.36-.35.92-.35h9.02c.56,0,.89.26.92.35v13.37h-10.86v-13.36ZM41.96,42.47c0,1.62-1.27,2.93-2.84,2.93h-6.69v-13.37c0-1.32-1.28-2.35-2.92-2.35h-9.02c-1.64,0-2.92,1.03-2.92,2.35v13.37h-6.69c-1.56,0-2.84-1.32-2.84-2.93v-22.06L25,4.95l16.96,15.46v22.06Z"/>
</svg>