<svg xmlns="http://www.w3.org/2000/svg" version="1.1" viewBox="0 0 50 50">
  <defs>
    <style>
      .st0 {fill: #6c84ff;}
    </style>
  </defs>
  <path class="st0" d="M33,45.44c-3.67,0-7.35-1.4-10.15-4.2l-14.09-14.09c-5.59-5.59-5.59-14.7,0-20.29l1.3-1.3c1.34-1.34,3.51-1.34,4.85,0l5.2,5.2c.77.77,1.19,1.79,1.18,2.87s-.43,2.1-1.21,2.86c-.85.83-1.31,1.94-1.32,3.13s.45,2.3,1.29,3.14l7.15,7.15c1.74,1.74,4.57,1.74,6.31,0,.76-.77,1.77-1.2,2.86-1.2,0,0,.01,0,.02,0,1.08,0,2.09.42,2.85,1.18l5.2,5.2c1.33,1.34,1.33,3.51,0,4.85l-1.3,1.3c-2.8,2.8-6.47,4.2-10.15,4.2ZM12.48,6.56c-.38,0-.74.15-1.01.42l-1.3,1.3c-4.81,4.81-4.81,12.65,0,17.46l14.09,14.09c4.81,4.81,12.65,4.81,17.46,0l1.3-1.3c.56-.56.56-1.46,0-2.02l-5.2-5.2c-.38-.38-.9-.6-1.44-.6h0c-.55,0-1.06.22-1.44.61h0c-2.52,2.53-6.62,2.53-9.14,0l-7.15-7.15c-1.22-1.22-1.89-2.84-1.88-4.56s.69-3.34,1.92-4.55c.39-.38.61-.9.61-1.44,0-.55-.21-1.06-.6-1.45l-5.2-5.2c-.27-.27-.63-.42-1.01-.42Z"/>
</svg>