<svg xmlns="http://www.w3.org/2000/svg" version="1.1" viewBox="0 0 50 50">
  <defs>
    <style>
      .st0 {fill: #ffffff;}
    </style>
  </defs>
  <path class="st0" d="M41.37,11.78h-7.01c-1.23-3.92-5.05-6.68-9.36-6.68s-8.13,2.77-9.36,6.68h-7.01c-2.76,0-5,2.24-5,5v23.12c0,2.76,2.24,5,5,5h32.75c2.76,0,5-2.24,5-5v-23.12c0-2.76-2.24-5-5-5ZM35.18,13.78v29.12H14.82V13.78h20.35ZM25,7.1c3.22,0,6.08,1.91,7.24,4.68h-14.47c1.16-2.77,4.02-4.68,7.24-4.68ZM5.63,39.9v-23.12c0-1.65,1.35-3,3-3h4.2v29.12h-4.2c-1.65,0-3-1.35-3-3ZM44.37,39.9c0,1.65-1.35,3-3,3h-4.2V13.78h4.2c1.65,0,3,1.35,3,3v23.12Z"/>
</svg>