<svg xmlns="http://www.w3.org/2000/svg" version="1.1" viewBox="0 0 50 50">
  <defs>
    <style>
      .st0 {fill: #ffffff;}
    </style>
  </defs>
  <path class="st0" d="M44.73,11.88h-3.16v-4.94c0-.55-.45-1-1-1-10.42,0-14.88,4.47-16.07,5.94H6.58c-2.21,0-4,1.79-4,4v24.18c0,2.21,1.79,4,4,4h38.14c1.48,0,2.69-1.21,2.69-2.69V14.57c0-1.48-1.21-2.69-2.69-2.69ZM39.57,7.95v25.79c-7.51.24-11.52,3.2-13.57,5.67V13.21c.78-.97,4.54-4.98,13.57-5.26ZM4.58,40.06V15.88c0-1.1.9-2,2-2h17.42v28.18H6.58c-1.1,0-2-.9-2-2ZM45.42,41.37c0,.38-.31.69-.69.69h-18.14c1.3-2.18,4.97-6.34,13.99-6.34.55,0,1-.45,1-1V13.88h3.16c.38,0,.69.31.69.69v26.81Z"/>
  <rect class="st0" x="10.48" y="21.84" width="7.17" height="2"/>
  <rect class="st0" x="10.48" y="29.34" width="7.17" height="2"/>
</svg>