<svg xmlns="http://www.w3.org/2000/svg" version="1.1" viewBox="0 0 50 50">
  <defs>
    <style>
      .st0 {fill: #ffffff;}
    </style>
  </defs>
  <path class="st0" d="M45.27,26.96c0-2.92-1.34-5.53-3.44-7.26V5.45c0-1.84-1.5-3.34-3.34-3.34H8.07c-1.84,0-3.34,1.5-3.34,3.34v35.65c0,1.84,1.5,3.34,3.34,3.34h21.87v2.45c0,.43.27.81.67.95.11.04.21.05.32.05.31,0,.6-.14.79-.39l4.15-5.43,4.15,5.43c.26.34.71.48,1.11.34.41-.14.68-.52.68-.94l.03-12.7c2.09-1.72,3.42-4.33,3.42-7.24ZM43.27,26.96c0,4.08-3.32,7.39-7.39,7.39s-7.39-3.32-7.39-7.39,3.32-7.39,7.39-7.39,7.39,3.32,7.39,7.39ZM8.07,42.44c-.74,0-1.34-.6-1.34-1.34V5.45c0-.74.6-1.34,1.34-1.34h30.42c.74,0,1.34.6,1.34,1.34v13c-1.2-.56-2.54-.88-3.95-.88-5.18,0-9.39,4.21-9.39,9.39,0,2.94,1.36,5.56,3.48,7.29l-.02,8.2H8.07ZM39.83,43.94l-3.15-4.13c-.38-.49-1.21-.49-1.59,0l-3.14,4.11.02-8.44c1.19.55,2.52.87,3.91.87s2.76-.33,3.97-.89l-.02,8.49Z"/>
  <path class="st0" d="M35.88,20.98c-3.29,0-5.97,2.68-5.97,5.98s2.68,5.97,5.97,5.97,5.97-2.68,5.97-5.97-2.68-5.98-5.97-5.98ZM35.88,30.93c-2.19,0-3.97-1.78-3.97-3.97s1.78-3.98,3.97-3.98,3.97,1.78,3.97,3.98-1.78,3.97-3.97,3.97Z"/>
  <rect class="st0" x="15.18" y="17.57" width="8.2" height="2"/>
  <rect class="st0" x="15.18" y="25.19" width="8.2" height="2"/>
</svg>