<svg xmlns="http://www.w3.org/2000/svg" version="1.1" viewBox="0 0 50 50">
  <defs>
    <style>
      .st0 {fill: #ffffff;}
    </style>
  </defs>
  <path class="st0" d="M42.06,7.21H7.94c-2.76,0-5,2.24-5,5v25.58c0,2.76,2.24,5,5,5h34.13c2.76,0,5-2.24,5-5V12.21c0-2.76-2.24-5-5-5ZM42.06,40.79H7.94c-1.65,0-3-1.35-3-3V12.21c0-1.65,1.35-3,3-3h34.13c1.65,0,3,1.35,3,3v3.97H9.6v2h35.46v19.61c0,1.65-1.35,3-3,3Z"/>
  <path class="st0" d="M39.84,13.8h2.09c.55,0,1-.45,1-1s-.45-1-1-1h-2.09c-.55,0-1,.45-1,1s.45,1,1,1Z"/>
  <path class="st0" d="M19.22,24.29c-.39-.39-1.02-.39-1.41,0l-4.53,4.53c-.39.39-.39,1.02,0,1.41l4.53,4.53c.2.2.45.29.71.29s.51-.1.71-.29c.39-.39.39-1.02,0-1.41l-3.82-3.82,3.82-3.82c.39-.39.39-1.02,0-1.41Z"/>
  <path class="st0" d="M32.19,24.29c-.39-.39-1.02-.39-1.41,0s-.39,1.02,0,1.41l3.82,3.82-3.82,3.82c-.39.39-.39,1.02,0,1.41.2.2.45.29.71.29s.51-.1.71-.29l4.53-4.53c.39-.39.39-1.02,0-1.41l-4.53-4.53Z"/>
  <path class="st0" d="M27.71,24.11c-.5-.25-1.09-.05-1.34.45l-4.52,9.05c-.25.49-.05,1.09.45,1.34.14.07.3.11.45.11.37,0,.72-.2.9-.55l4.52-9.05c.25-.49.05-1.09-.45-1.34Z"/>
</svg>