<svg xmlns="http://www.w3.org/2000/svg" version="1.1" xmlns:xlink="http://www.w3.org/1999/xlink" viewBox="0 0 100 100">
  <defs>
    <style>
      .st0 {fill: #da8e81;}
      .st1 {fill: #92a8d2;}
      .st2 {fill: #fff;}
      .st3 {fill: #eb6357;}
      .st4 {fill: #522814;}
      .st5 {fill: none;}
      .st6 {fill: #f5d02d;}
      .st7 {fill: #4cab77;}
      .st8 {fill: #8a8a8a;}
      .st9 {fill: #f8c7b0;}
      .st10 {fill: #aaa8a8;}
      .st11 {fill: #f3a066;}
      .st12 {fill: #6d6d6d;}
      .st13 {fill: #f3a18d;}
      .st14 {clip-path: url(#clippath);}
    </style>
    <clipPath id="clippath">
      <circle class="st5" cx="56.38" cy="50" r="41.76"/>
    </clipPath>
  </defs>
  <circle class="st6" cx="56.38" cy="50" r="41.76"/>
  <g class="st14">
    <g>
      <path class="st10" d="M81.59,90.5h-45.34v-3.21h2.72s0,0,0,0c0,0,.01,0,.02,0h3.66s0,0,0,0c0,0,.02,0,.03,0h4.12s0,0,0,0c0,0,0,0,0,0h17.72s0,0,0,0c0,0,0,0,0,0h17.05v3.21Z"/>
      <path class="st9" d="M66.56,80.12c1.97-1.39,4.45-1.68,6.19-1.68,2.28,0,3.69.56,4.3,1.72.38.71.69,1.81.53,2.46-.1.41-.29.81-.49,1.23-.14.29-.27.58-.38.88-.19.52-.38.97-.67,1.34-.07.08-.15.16-.23.23h-1.33v-3.12c0-.28-.22-.5-.5-.5s-.5.22-.5.5v3.12h-2.58v-2.31c0-.28-.22-.5-.5-.5s-.5.22-.5.5v2.31h-2.57v-1.88c0-.28-.22-.5-.5-.5s-.5.22-.5.5v1.88h-1.42c-.12-.42-.18-.87-.22-1.34-.22-2.31.34-3.76,1.87-4.83Z"/>
      <path class="st9" d="M49.29,79.76c.08.98.13,1.86-.1,2.85-.03.12-.08.5-.15.99-.09.67-.3,2.13-.45,2.69h-1.43c-.13-.36-.23-.72-.25-1.07v-3.19c0-.28-.22-.5-.5-.5s-.5.22-.5.5v3.22c.02.35.1.7.2,1.04h-2.96c-.05-1.13-.05-2.27,0-3.39.01-.28-.2-.51-.48-.52-.28-.01-.51.2-.52.48-.05,1.14-.04,2.29,0,3.43h-2.7c-.09-.98-.12-1.98-.05-2.96.02-.28-.19-.51-.47-.53-.27-.02-.51.19-.53.47-.07,1-.04,2.02.05,3.02h-.74c-.23-.19-.81-.77-.81-1.86v-3.28c.06-.74.17-1.49.65-1.93.48-.46,1.14-.63,1.84-.82.23-.06.46-.13.68-.2.51-.16.89-.43,1.26-.69.32-.23.63-.45,1-.56,1.34-.42,3.9-.87,5.92.71.8.63.97,1.14,1.05,2.1Z"/>
      <path class="st2" d="M63.7,85.06c.04.39.08.81.17,1.23h-14.26c.11-.5.23-1.27.41-2.55.02-.12.03-.24.05-.34h.61s0,0,0,0c0,0,0,0,0,0h12.99c-.04.58-.03,1.14.02,1.67Z"/>
      <path class="st11" d="M86.54,66.63c-.08-.18-.15-.36-.23-.54-2.23-4.93-5.87-6.53-8.22-7.05,2.63-1.76,4.44-4.22,5.5-7.44,2.45-.17,4.3-2.15,4.76-5,1.69,3.47,3.65,9.13,3.65,12.22,0,3.5-2.18,6.57-5.45,7.8Z"/>
      <path class="st9" d="M44.14,42.36v-.35s0,0,0,0,0,0,0,0c0-1.88.09-3.53.25-5.03,5.6-2.56,8.54-7.72,9.45-9.58,8.42,8.33,21.35,9.62,23.61,9.78l1.93,5.56c.07.19.24.32.44.33.01,0,.02,0,.04,0,.19,0,.36-.1.44-.27l1.6-3.07h1.35c2.44,0,4.21,2.29,4.21,5.45s-1.73,5.45-4.22,5.45c0,0-.02,0-.03,0-.01,0-.03,0-.04,0-.32-.01-2.02-.06-3.01-.83-.22-.17-.53-.13-.7.09s-.13.53.09.7c.91.71,2.19.93,2.98,1-2.35,6.68-8.36,9.8-18.85,9.8-11.51,0-19.54-7.83-19.54-19.03Z"/>
      <path class="st3" d="M63.43,53.78c-2.49,0-4.61-1.25-4.69-2.75.28-.21,1.56-.57,4.23-.57,2.8,0,4.71.33,5.14.6-.11,1.49-2.21,2.72-4.69,2.72Z"/>
      <path class="st9" d="M43.05,46.91c-2.16,0-3.92-1.97-3.92-4.39s1.76-4.39,3.92-4.39c.08,0,.16.02.24.02-.09,1.18-.13,2.45-.14,3.85,0,0,0,0,0,0v.36c0,1.56.16,3.06.44,4.48-.18.03-.36.07-.54.07Z"/>
      <path class="st11" d="M42.61,28.71c1.29-3.62,4.29-6.96,8.46-9.41,7.94-4.67,12.44-1.65,12.48-1.62.14.1.32.12.48.05.03-.01,3.44-1.39,8.45-.29,5.16,1.13,12.78,6.81,13.46,13.48.46,4.56-.2,7.28-.55,8.34-.65-.34-1.37-.53-2.14-.53h-.83l1.2-2.31c.13-.24.03-.55-.21-.67-.24-.13-.55-.03-.67.21l-2.79,5.35-1.66-4.78c-.07-.19-.25-.33-.45-.34-.15,0-14.91-.7-23.78-10.02-.12-.12-.28-.18-.46-.15-.17.03-.31.15-.37.3-.03.08-3.15,7.52-10.27,10.17-1.12-2.38-1.25-5.26-.35-7.8Z"/>
      <path class="st1" d="M60.77,62.21s.02.03.03.04l3.28,3.22-2.91,2.91-2.61-6.54c.72.16,1.46.28,2.22.37Z"/>
      <path class="st1" d="M64.97,77.91l-3.4-8.52,3.24-3.24,4.12,3.59s.09.06.13.08l-4.09,8.1Z"/>
      <path class="st1" d="M69.51,68.92l-3.94-3.43,4.61-3.58c1.16-.19,2.24-.43,3.25-.74l-3.92,7.75Z"/>
      <path class="st2" d="M88.74,84.98s.01.06.02.09c-.18.88-1.22,4.27-6.17,4.52v-2.8c0-.28-.22-.5-.5-.5h-4.99c.23-.38.39-.79.55-1.22.1-.27.23-.54.35-.8.21-.44.43-.9.55-1.41.27-1.08-.26-2.5-.62-3.17-.7-1.33-2.09-2.06-4.22-2.22l3.48-1.59c.18-.08.29-.26.29-.46v-6.62c0-.28-.22-.5-.5-.5s-.5.22-.5.5v6.3l-5.2,2.38s-.02.02-.04.03c-1.66.16-3.61.63-5.26,1.79-1.28.9-1.89,1.99-2.15,3.1h-11.9c1.55-1.53,2.83-3.33,3.71-5.31.11-.25,0-.55-.25-.66-.25-.11-.55,0-.66.25-.96,2.18-2.43,4.14-4.24,5.72h-.25c.16-.95.12-1.83.05-2.72-.1-1.17-.35-1.96-1.42-2.81-.43-.34-.9-.61-1.4-.82h3.6c.28,0,.5-.22.5-.5v-6.12c.59.14,1.16.37,1.66.7.99.65,1.74,1.68,2.07,2.82.02.42.05.84.05,1.25,0,.28.22.5.5.5h0c.28,0,.5-.23.5-.5,0-3.16-.5-6.29-1.47-9.3-.08-.26-.37-.41-.63-.32-.26.08-.41.37-.32.63.56,1.73.93,3.51,1.16,5.3-.38-.46-.81-.88-1.31-1.21-.66-.44-1.42-.73-2.21-.88v-7.42c.48-.46,1.04-.84,1.64-1.09,1.29.68,2.68,1.25,4.17,1.65l7.08,17.74c.07.18.25.31.44.31h.02c.19,0,.36-.11.45-.27l9.42-18.64c.69-.26,1.34-.55,1.95-.87,1.87.18,6.19,1.19,8.67,6.66,3.3,7.28,3.34,18.36,3.34,18.47Z"/>
      <circle class="st4" cx="54.66" cy="40.3" r="1.71"/>
      <circle class="st4" cx="69.51" cy="40.3" r="1.71"/>
      <ellipse class="st13" cx="75.42" cy="47.41" rx="3.12" ry="2.23"/>
      <ellipse class="st13" cx="51.55" cy="47.41" rx="3.12" ry="2.23"/>
      <g>
        <path class="st4" d="M41.03,76.05h.84c-.44.16-.8.4-1.14.63-.32.22-.62.44-.99.55-.21.07-.43.13-.64.18-.79.21-1.6.44-2.27,1.06-.72.68-.89,1.69-.96,2.62v3.32c0,.81.24,1.42.52,1.86h-.66c-.28,0-.5.22-.5.5v4.21c0,.28.22.5.5.5h46.34c.28,0,.5-.22.5-.5v-4.21c0-.28-.22-.5-.5-.5h-4.99c.23-.38.39-.79.55-1.22.1-.27.23-.54.35-.8.21-.44.43-.9.55-1.41.27-1.08-.26-2.5-.62-3.17-.7-1.33-2.09-2.06-4.22-2.22l3.48-1.59c.18-.08.29-.26.29-.46v-6.62c0-.28-.22-.5-.5-.5s-.5.22-.5.5v6.3l-5.2,2.38s-.02.02-.04.03c-1.66.16-3.61.63-5.26,1.79-1.28.9-1.89,1.99-2.15,3.1h-11.9c1.55-1.53,2.83-3.33,3.71-5.31.11-.25,0-.55-.25-.66-.25-.11-.55,0-.66.25-.96,2.18-2.43,4.14-4.24,5.72h-.25c.16-.95.12-1.83.05-2.72-.1-1.17-.35-1.96-1.42-2.81-.43-.34-.9-.61-1.4-.82h3.6c.28,0,.5-.22.5-.5v-6.12c.59.14,1.16.37,1.66.7.99.65,1.74,1.68,2.07,2.82.02.42.05.84.05,1.25,0,.28.22.5.5.5h0c.28,0,.5-.23.5-.5,0-3.16-.5-6.29-1.47-9.3-.08-.26-.37-.41-.63-.32-.26.08-.41.37-.32.63.56,1.73.93,3.51,1.16,5.3-.38-.46-.81-.88-1.31-1.21-.66-.44-1.42-.73-2.21-.88v-7.42c.48-.46,1.04-.84,1.64-1.09,1.29.68,2.68,1.25,4.17,1.65l7.08,17.74c.07.18.25.31.44.31h.02c.19,0,.36-.11.45-.27l9.42-18.64c.69-.26,1.34-.55,1.95-.87,1.87.18,6.19,1.19,8.67,6.66,3.3,7.28,3.34,18.36,3.34,18.47,0,.28.22.5.5.5s.5-.22.5-.5c0-.43-.03-10.04-2.81-17.4,3.65-1.39,6.07-4.83,6.07-8.75s-2.72-11.04-4.55-14.18c-.12-2.04-.95-3.76-2.2-4.81.37-.99,1.21-3.9.68-9.02-.73-7.11-8.78-13.15-14.24-14.35-4.6-1.01-7.89-.06-8.8.25-1.08-.62-5.73-2.75-13.33,1.72-4.37,2.57-7.53,6.09-8.9,9.93-1.03,2.89-.82,6.18.54,8.86-2.31.44-4.08,2.64-4.08,5.29,0,2.97,2.21,5.39,4.92,5.39.26,0,.52-.03.78-.07,1.24,4.96,4.18,8.95,8.33,11.49-.2.12-.4.24-.59.38v-.38c0-.28-.22-.5-.5-.5s-.5.22-.5.5v1.46s0,0,0,.01v14.25h-9.53v1ZM81.59,90.5h-45.34v-3.21h2.72s0,0,0,0c0,0,.01,0,.02,0h3.66s0,0,0,0c0,0,.02,0,.03,0h4.12s0,0,0,0c0,0,0,0,0,0h17.72s0,0,0,0c0,0,0,0,0,0h17.05v3.21ZM66.56,80.12c1.97-1.39,4.45-1.68,6.19-1.68,2.28,0,3.69.56,4.3,1.72.38.71.69,1.81.53,2.46-.1.41-.29.81-.49,1.23-.14.29-.27.58-.38.88-.19.52-.38.97-.67,1.34-.07.08-.15.16-.23.23h-1.33v-3.12c0-.28-.22-.5-.5-.5s-.5.22-.5.5v3.12h-2.58v-2.31c0-.28-.22-.5-.5-.5s-.5.22-.5.5v2.31h-2.57v-1.88c0-.28-.22-.5-.5-.5s-.5.22-.5.5v1.88h-1.42c-.12-.42-.18-.87-.22-1.34-.22-2.31.34-3.76,1.87-4.83ZM63.7,85.06c.04.39.08.81.17,1.23h-14.26c.11-.5.23-1.27.41-2.55.02-.12.03-.24.05-.34h.61s0,0,0,0c0,0,0,0,0,0h12.99c-.04.58-.03,1.14.02,1.67ZM49.29,79.76c.08.98.13,1.86-.1,2.85-.03.12-.08.5-.15.99-.09.67-.3,2.13-.45,2.69h-1.43c-.13-.36-.23-.72-.25-1.07v-3.19c0-.28-.22-.5-.5-.5s-.5.22-.5.5v3.22c.02.35.1.7.2,1.04h-2.96c-.05-1.13-.05-2.27,0-3.39.01-.28-.2-.51-.48-.52-.28-.01-.51.2-.52.48-.05,1.14-.04,2.29,0,3.43h-2.7c-.09-.98-.12-1.98-.05-2.96.02-.28-.19-.51-.47-.53-.27-.02-.51.19-.53.47-.07,1-.04,2.02.05,3.02h-.74c-.23-.19-.81-.77-.81-1.86v-3.28c.06-.74.17-1.49.65-1.93.48-.46,1.14-.63,1.84-.82.23-.06.46-.13.68-.2.51-.16.89-.43,1.26-.69.32-.23.63-.45,1-.56,1.34-.42,3.9-.87,5.92.71.8.63.97,1.14,1.05,2.1ZM42.61,28.71c1.29-3.62,4.29-6.96,8.46-9.41,7.94-4.67,12.44-1.65,12.48-1.62.14.1.32.12.48.05.03-.01,3.44-1.39,8.45-.29,5.16,1.13,12.78,6.81,13.46,13.48.46,4.56-.2,7.28-.55,8.34-.65-.34-1.37-.53-2.14-.53h-.83l1.2-2.31c.13-.24.03-.55-.21-.67-.24-.13-.55-.03-.67.21l-2.79,5.35-1.66-4.78c-.07-.19-.25-.33-.45-.34-.15,0-14.91-.7-23.78-10.02-.12-.12-.28-.18-.46-.15-.17.03-.31.15-.37.3-.03.08-3.15,7.52-10.27,10.17-1.12-2.38-1.25-5.26-.35-7.8ZM43.05,46.91c-2.16,0-3.92-1.97-3.92-4.39s1.76-4.39,3.92-4.39c.08,0,.16.02.24.02-.09,1.18-.13,2.45-.14,3.85,0,0,0,0,0,0v.36c0,1.56.16,3.06.44,4.48-.18.03-.36.07-.54.07ZM44.14,42.36v-.35s0,0,0,0,0,0,0,0c0-1.88.09-3.53.25-5.03,5.6-2.56,8.54-7.72,9.45-9.58,8.42,8.33,21.35,9.62,23.61,9.78l1.93,5.56c.07.19.24.32.44.33.01,0,.02,0,.04,0,.19,0,.36-.1.44-.27l1.6-3.07h1.35c2.44,0,4.21,2.29,4.21,5.45s-1.73,5.45-4.22,5.45c0,0-.02,0-.03,0-.01,0-.03,0-.04,0-.32-.01-2.02-.06-3.01-.83-.22-.17-.53-.13-.7.09s-.13.53.09.7c.91.71,2.19.93,2.98,1-2.35,6.68-8.36,9.8-18.85,9.8-11.51,0-19.54-7.83-19.54-19.03ZM64.83,64.8l-2.51-2.47c.45.02.9.06,1.37.06,1.62,0,3.12-.08,4.54-.23l-3.39,2.64ZM60.77,62.21s.02.03.03.04l3.28,3.22-2.91,2.91-2.61-6.54c.72.16,1.46.28,2.22.37ZM64.97,77.91l-3.4-8.52,3.24-3.24,4.12,3.59s.09.06.13.08l-4.09,8.1ZM69.51,68.92l-3.94-3.43,4.61-3.58c1.16-.19,2.24-.43,3.25-.74l-3.92,7.75ZM86.54,66.63c-.08-.18-.15-.36-.23-.54-2.23-4.93-5.87-6.53-8.22-7.05,2.63-1.76,4.44-4.22,5.5-7.44,2.45-.17,4.3-2.15,4.76-5,1.69,3.47,3.65,9.13,3.65,12.22,0,3.5-2.18,6.57-5.45,7.8Z"/>
        <path class="st4" d="M57.93,34.61c-.34-1.17-1.6-1.99-3.05-1.99-1.6,0-2.94.99-3.12,2.31-.04.27.15.53.43.56.02,0,.05,0,.07,0,.25,0,.46-.18.49-.43.11-.81,1.05-1.44,2.13-1.44,1,0,1.88.53,2.09,1.27.08.26.35.42.62.34.26-.08.42-.36.34-.62Z"/>
        <path class="st4" d="M60.85,47.55c.09.08.21.12.33.12.14,0,.28-.06.38-.17.18-.21.16-.52-.05-.71l-.69-.6.77-1.12c.16-.23.1-.54-.13-.69-.23-.16-.54-.1-.7.13l-1.02,1.49c-.14.21-.11.49.08.66l1.02.89Z"/>
        <path class="st4" d="M69.12,50.94c0-1.22-3.34-1.48-6.15-1.48-2.39,0-5.23.26-5.23,1.48,0,2.15,2.5,3.84,5.69,3.84s5.69-1.69,5.69-3.84ZM63.43,53.78c-2.49,0-4.61-1.25-4.69-2.75.28-.21,1.56-.57,4.23-.57,2.8,0,4.71.33,5.14.6-.11,1.49-2.21,2.72-4.69,2.72Z"/>
        <path class="st0" d="M80.75,45.93h3.45c.28,0,.5-.22.5-.5s-.22-.5-.5-.5h-3.45c-.28,0-.5.22-.5.5s.22.5.5.5Z"/>
      </g>
      <path class="st9" d="M64.83,64.8l-2.51-2.47c.45.02.9.06,1.37.06,1.62,0,3.12-.08,4.54-.23l-3.39,2.64Z"/>
      <path class="st7" d="M54.26,60.44l8.82,21.95h.76c.04-.15.08-.31.13-.46l-8.42-20.96c-.44-.17-.87-.34-1.29-.53Z"/>
      <path class="st7" d="M67.37,78.51c.47-.22.95-.39,1.43-.53l9.7-17.79c-.36-.1-.7-.18-1.01-.24l-10.12,18.56Z"/>
    </g>
  </g>
  <g>
    <path class="st8" d="M50.56,75.05h-21.13l1.88-6.9c.04-.15,0-.31-.08-.44s-.24-.2-.4-.2h-9.51c-.18,0-.35.1-.44.26l-3.9,7.27H2.87v-32.54h47.7v32.54Z"/>
    <polygon class="st12" points="11.63 87.17 21.62 68.52 30.18 68.52 25.09 87.17 11.63 87.17"/>
    <rect class="st8" x="11.29" y="88.17" width="22.11" height="2.33"/>
    <path class="st4" d="M51.06,41.51H2.37c-.28,0-.5.22-.5.5v33.54c0,.28.22.5.5.5h14.09l-6.1,11.38s0,.01,0,.02c-.01.03-.02.06-.03.1,0,.03-.02.06-.02.1,0,0,0,.01,0,.02v3.33c0,.28.22.5.5.5h23.11c.28,0,.5-.22.5-.5v-3.33c0-.28-.22-.5-.5-.5h-7.77l3.03-11.12h21.9c.28,0,.5-.22.5-.5v-33.54c0-.28-.22-.5-.5-.5ZM33.4,90.5H11.29v-2.33h22.11v2.33ZM11.63,87.17l10-18.65h8.56l-5.09,18.65h-13.46ZM50.56,75.05h-21.13l1.88-6.9c.04-.15,0-.31-.08-.44s-.24-.2-.4-.2h-9.51c-.18,0-.35.1-.44.26l-3.9,7.27H2.87v-32.54h47.7v32.54Z"/>
  </g>
</svg>