<svg xmlns="http://www.w3.org/2000/svg" version="1.1" viewBox="0 0 100 100">
  <defs>
    <style>
      .st0 {fill: #7276ab;}
    </style>
  </defs>
  <path class="st0" d="M9.78,69.5l6.33-30.95c4.69.26,9.68-.31,14.33,0,7.51.51,9.88,5.86,8.26,12.71-1.01,4.26-4.34,8.02-8.47,9.47-3.68,1.29-7.71.46-11.54.72l-1.75,8.04h-7.16ZM20.15,55.68h5.02c.3,0,1.72-.41,2.09-.54,2.23-.8,3.27-2.52,3.83-4.73,1.84-7.19-3.91-6.09-8.98-6.02l-1.96,11.28Z"/>
  <path class="st0" d="M68.03,69.5h-7.24l6.33-30.95c4.68.28,9.69-.33,14.33,0,12.92.93,10.14,17.46.85,21.76-4.05,1.87-8.33.81-12.63,1.19l-1.64,7.99ZM71.16,55.68h4.85c.93,0,2.98-.77,3.76-1.34,1.99-1.48,2.93-5.08,2.57-7.45-.52-3.38-7.03-2.46-9.37-2.56l-1.81,11.35Z"/>
  <path class="st0" d="M49.6,38.56h7.65c1.23,0,3.84.98,4.84,1.74,2.28,1.74,2.11,3.63,1.8,6.21-.59,4.86-1.9,9.76-2.47,14.64l-.22.28h-7.49l2.76-15.84c-.23-.91-.84-1.15-1.71-1.26-.69-.08-6.07-.13-6.33.05l-3.44,17.04h-7.41l6.34-30.94h6.91l.22.37-1.45,7.69Z"/>
</svg>