<svg xmlns="http://www.w3.org/2000/svg" version="1.1" viewBox="0 0 100 100">
  <defs>
    <style>
      .st0 {fill: #fff;}
      .st1 {fill: #d74d28;}
      .st2 {fill: #e4642d;}
      .st3 {fill: #eaeaea;}
    </style>
  </defs>
  <polygon class="st1" points="13.48 8.62 86.38 8.62 86.52 9.63 79.87 83.07 50 91.38 20.98 83.37 20.18 82.84 13.93 11.84 13.48 9.51 13.48 8.62"/>
  <path class="st2" d="M27.24,23.94l22.86-.22v-9.1h29.74l-5.65,63.72-24.1,6.64v-9.32s.03-.47.03-.47l18.07-4.98c1-8.98,1.9-18.44,2.55-27.44-6.9.23-13.78.1-20.65-.4-.17,0-.44-.04-.44-.15-.06-1.09-.23-8.53,0-8.91l.44-.26c7.16-.48,14.35-.64,21.55-.47l.83-8.28.33-.07c-7.65.32-15.3.2-22.93-.28-7.54.55-15.1.55-22.64,0Z"/>
  <path class="st3" d="M49.88,23.94c.17,0,.43.04.44.15.18,2.15.25,6.61,0,8.69l-.44.26c-4.15.48-8.32.6-12.48.28l.37.65c.27,2.7.46,5.38.58,8.05,3.88-.32,7.73-.2,11.53.34.17,0,.43.04.44.15.18,2.15.25,6.61,0,8.69l-.44.26c-6.73.09-13.46.09-20.2,0l-2.44-27.53c7.54,0,15.1,0,22.64,0Z"/>
  <path class="st0" d="M50.11,42.36c7.03.01,14.06-.01,21.09,0v1.46s-2.47,26.71-2.47,26.71l-18.62,5.13h-.22c-.67-3.02-.75-6.55,0-9.54l.43-.58,9.49-2.66.93-11.05c-3.62.18-7.25.11-10.84-.37v-9.1c.04-.2.12-.19.22,0Z"/>
  <path class="st3" d="M49.88,75.66l-18.54-5.32-1.21-14.44h9.1l.77,7.34,9.89,2.65c.2.04.19.12,0,.22-.06,3.18.04,6.37,0,9.54Z"/>
  <path class="st2" d="M49.88,51.46c3.77,0,7.55,0,11.32,0l-.99,11.78-10.33,2.87c0-.07,0-.15,0-.22,0-.04.23-.34.24-.75.07-4.48-.08-8.98-.02-13.46l-20.42-.22c6.73.01,13.47-.01,20.2,0Z"/>
  <path class="st0" d="M49.88,23.94c7.69,0,15.39,0,23.08,0l-.91,9.08c-7.31.05-14.64.01-21.95.02-.04.2-.12.19-.22,0v-9.1Z"/>
</svg>