<svg xmlns="http://www.w3.org/2000/svg" version="1.1" viewBox="0 0 100 100">
  <defs>
    <style>
      .st0 {fill: #489cd6;}
    </style>
  </defs>
  <path class="st0" d="M76.86,47.41c-.42.27-3.02-.95-3.73-1.14-1.99-.53-6.82-1.28-8.49-.03-3.53,2.66,4.9,5.18,6.37,5.86,3.46,1.61,7.08,3.67,7.52,7.89,1.19,11.26-11.85,12.81-20.02,10.56-.52-.14-2.45-.77-2.74-1.07-.21-.22-.21-.67-.24-.97-.07-.83-.09-6.77.2-6.97,3.52,1.89,7.56,3,11.6,2.6,2.74-.27,3.86-2.38,1.26-4.04-4.41-2.83-12.04-3.5-12.84-10.36-1.26-10.71,11.18-12.65,19.1-10.56.89.24,1.91.4,2.14,1.38.26,1.08.18,4.63.09,5.87-.02.21-.09.91-.22.99Z"/>
  <path class="st0" d="M51.28,41.21c-1.12-14.57-18.91-12.74-29.25-12.35-.21-.02-.58.08-.64.29v41.02s.43.46.46.46h7.8s.28-.26.28-.28v-12.81c0-.2.46-.27.64-.29,1.04-.12,2.96.24,4.27.19,10.12-.37,17.27-5.35,16.44-16.25ZM40.69,47.9c-.97.81-3.71,1.95-4.92,1.95h-5.66v-13.36h6.22c.54,0,2.57.68,3.13.95,3.86,1.88,4.46,7.77,1.23,10.47Z"/>
</svg>