<svg xmlns="http://www.w3.org/2000/svg" version="1.1" viewBox="0 0 100 100">
  <defs>
    <style>
      .st0 {fill: #f39618;}
    </style>
  </defs>
  <path class="st0" d="M48.25,31.8l-.26-.28-10.25-.06c-.35.73-.12,1.55-.25,2.32-.15.9-.52,1.87-.79,2.75-3.55,11.38-8.23,22.62-11.84,34.01-.16.2,0,.71.19.71h7.62l3.54-9.39,13.9.03c1.05,2.71,1.71,5.9,2.89,8.52.1.23.35.77.58.84h8.15c.66,0-.33-2.41-.44-2.75-4.1-12.31-8.92-24.4-13.03-36.7ZM38.24,54.09l4.78-15.57,4.61,15.57h-9.39Z"/>
  <path class="st0" d="M74.74,42.31c-.02-.26-.17-1.14-.45-1.14h-7.79c-.06.09-.27.22-.27.27v29.73s.25.27.27.27h7.79c.2,0,.53-.88.45-1.14-.64-9,.82-19.1,0-27.97Z"/>
  <path class="st0" d="M69.53,37.97c7.5,1,7.65-10.43.03-9.32-5.1.75-4.99,8.66-.03,9.32Z"/>
</svg>