<svg xmlns="http://www.w3.org/2000/svg" version="1.1" viewBox="0 0 100 100">
  <defs>
    <style>
      .st0 {fill: #fff;}
      .st1 {fill: #e7b92d;}
      .st2 {fill: #eaeaea;}
      .st3 {fill: #de9f2f;}
    </style>
  </defs>
  <path class="st3" d="M86.51,8.62c-.03.73.05,1.49,0,2.22-.04.59-.42,1.65-.44,2.33l-6.26,69.99-29.81,8.21-29.83-8.19L13.48,8.74l73.03-.11Z"/>
  <path class="st1" d="M49.88,23.72v-9.1h29.96l-5.65,63.72-24.32,6.65v-9.32c-.29-.19-.14-.26.44-.22l.03-.47,17.87-4.75c1.58-15.17,2.93-30.35,4.06-45.54l.46-.3.08-.33c-7.64-.22-15.29-.33-22.94-.34Z"/>
  <path class="st1" d="M49.88,32.82c3.31-.7,7.07-.58,10.49-.42,1.54-.2,2.55.04,3.03.73l-2.95,30.1c-.06.14-.16.24-.27.35-.46.45-8.18,2.39-9.44,2.66l-.43-.35c-.23.12-.38.12-.44,0v-32.85s-22.2-.22-22.2-.22c7.38-.64,14.81-.66,22.2,0Z"/>
  <path class="st2" d="M49.88,75.66l-18.85-5.13-1.13-14.63h9.1l.76,7.34,10.11,2.65h.44c-.16,3.09-.11,6.89,0,9.54l-.44.22Z"/>
  <path class="st2" d="M49.88,23.72c7.69,0,15.39,0,23.08,0,.15.33-.21.59-.22.66-7.45-.02-14.92-.03-22.42-.04v8.22s-.44.26-.44.26c-7.4-.02-14.8.01-22.2,0l-.67-9.1c7.62,0,15.25,0,22.86,0Z"/>
  <path class="st0" d="M49.88,32.82v-8.88c7.35.19,14.75-.24,22.1,0,.43.01.89-.23.77.44-.07.61.07,1.27,0,1.89l-4,44.28-18.41,4.89c-.67.12-.43-.34-.44-.77-.08-2.41-.21-5.67-.02-8.02.04-.45.03-.54.46-.76l9.39-2.48.35-.32,2.92-30.16c-4.35-.22-8.74-.11-13.1-.11Z"/>
</svg>