<svg xmlns="http://www.w3.org/2000/svg" version="1.1" viewBox="0 0 100 100">
  <defs>
    <style>
      .st0 {fill: #096bad;}
      .st1 {fill: #329dd0;}
      .st2 {fill: #fff;}
      .st3 {fill: #eaeaea;}
    </style>
  </defs>
  <polygon class="st0" points="86.51 8.62 79.81 83.16 50 91.38 20.17 83.19 13.49 8.62 86.51 8.62"/>
  <path class="st1" d="M49.89,23.94c.24-2.7-.32-5.93-.01-8.56.03-.22.1-.77.34-.77h29.63l-5.65,63.72-24.32,6.65v-9.32c-.25-.57.04-.67.44-.22l.15-.5,17.75-4.72c1.43-15.24,2.79-30.52,4.06-45.83l.47-.23c-7.46-.12-15.08-.19-22.86-.22Z"/>
  <path class="st3" d="M49.89,75.66l-19.06-5.36-1.36-14.62h9.54l.7,7.52c3.27.55,6.49,1.91,9.74,2.47.53-.12.75-.05.67.22.17,0,.44.03.45.14.19,2.41.29,5.66.19,8.07.16.73.02,1.17-.41,1.34l-.44.22Z"/>
  <path class="st3" d="M49.89,23.94c7.21,0,14.43-.08,21.64,0,.38,0,.99-.14,1.22.23l-.15.44h-21.89c-.18,2.66-.23,5.39-.15,8.17l-.44.26c-.04.2-.12.19-.22,0-7.32-.02-14.65.01-21.98,0l-.67-9.1c7.54,0,15.1,0,22.64,0Z"/>
  <path class="st3" d="M50.11,42.36c.17,0,.44.04.44.15.13,2.68.13,6.01,0,8.69l-.44.26c-6.88.09-13.76.09-20.64,0l-.67-9.1c7.1-.09,14.21-.09,21.31,0Z"/>
  <path class="st1" d="M50.11,51.46c3.73-.55,7.56-.61,11.27-.31l.28.51-1.24,11.73c-3.24,1.1-6.56,2.05-9.94,2.86l-.37-.36c-.28.13-.57-.21-.67-.22.67.12.43-.34.44-.77.17-4.39-.13-8.83,0-13.22l-20.42-.22c6.88.02,13.77-.02,20.64,0Z"/>
  <path class="st1" d="M50.11,33.04c.28-.11.57-.22.86-.3s.57-.15.86-.15c3.44-.05,6.89-.04,10.33.08.75-.13,1.03.13,1.25.68s-1.04,8.05-1.34,9.22c-1.75.46-9.51.56-11.18.08-.27-.08-.53-.18-.78-.29-7.1.02-14.21-.02-21.31,0l21.09-.22v-9.1c.07,0,.15,0,.22,0Z"/>
  <path class="st2" d="M72.75,24.16l-4.01,46.38-18.41,4.89-.22-9.54,9.98-2.67c.16-3.82.87-7.62,1.12-11.42.03-.46,0-.29-.33-.33-3.59,0-7.18.01-10.77,0v-9.1c3.92-.01,7.86.09,11.78-.1l1.1-9.11c-4.28-.22-8.59-.1-12.88-.11v-8.88s22.64,0,22.64,0Z"/>
</svg>