<svg xmlns="http://www.w3.org/2000/svg" version="1.1" viewBox="0 0 86 136">
  <defs>
    <style>
      .st0 {fill: #f2c51f;}
      .st1 {fill: #251913;}
      .st2 {fill: #f5b11a;}
      .st3 {fill: #fad4bf;}
    </style>
  </defs>
  <path class="st3" d="M27.54,47.97l1.81-27.74L4.57,3.26c-1.36-.93-3.21.1-3.13,1.75l1.48,30,24.61,12.96Z"/>
  <path class="st1" d="M1.34,3l.35,7.1,7.08-3.96L2.91,2.12c-.68-.47-1.6.05-1.56.87Z"/>
  <path class="st0" d="M58.48,134.36L2.93,35.01l8.18,1.86c1,.23,2.01-.34,2.34-1.31l2.11-6.23c.33-.97,1.34-1.54,2.34-1.31l6.42,1.46c1,.23,2.01-.34,2.34-1.31l2.69-7.94,55.55,99.35"/>
  <path class="st2" d="M17.9,28.02c-1-.23-2.01.34-2.34,1.31l-1.6,4.73,53.33,95.38,8.81-4.92L22.76,29.13l-4.87-1.11Z"/>
</svg>