<svg xmlns="http://www.w3.org/2000/svg" version="1.1" viewBox="0 0 35 60">
  <defs>
    <style>
      .st0 {fill: #778393;}
    </style>
  </defs>
  <path class="st0" d="M5.65,13.36c-.98-8.4,10.22-11.08,12.94-2.73,3.25,13.32,6.79,26.58,9.87,39.93-.14,4.34-5.84,5.4-7.47,1.36l-6.39-25.56c-.75-1.8-3.07-1.09-2.79.78l6.37,25.48c2.78,7.77,13.98,5.21,13.05-3.02L21.12,9.14C18.71,1.98,9.03.4,4.56,6.44c-.31.42-.8,1.23-1.02,1.7-.72,1.52-.95,3.6-.75,5.26,1.41,5.87,2.84,11.74,4.29,17.6h2.98L5.65,13.36Z"/>
  <path class="st0" d="M30.17,22.54c-.63-1.79-3.01-1.32-2.83.62l1.96,7.83h2.98l-2.11-8.46Z"/>
</svg>