<svg xmlns="http://www.w3.org/2000/svg" version="1.1" viewBox="0 0 20 20">
  <defs>
    <style>
      .st0 {fill: #ffa701;}
    </style>
  </defs>
  <path class="st0" d="M16.45,2.6h-.5v-1.22c0-.28-.23-.51-.51-.51s-.51.23-.51.51v1.22H5.06v-1.22c0-.28-.23-.51-.51-.51s-.51.23-.51.51v1.22h-.5c-1.4,0-2.55,1.14-2.55,2.55v11.44c0,1.4,1.14,2.55,2.55,2.55h12.91c1.4,0,2.55-1.14,2.55-2.55V5.15c0-1.4-1.14-2.55-2.55-2.55ZM3.55,3.62h.5v1.18c0,.28.23.51.51.51s.51-.23.51-.51v-1.18h9.88v1.18c0,.28.23.51.51.51s.51-.23.51-.51v-1.18h.5c.84,0,1.53.69,1.53,1.53v1.96H2.02v-1.96c0-.84.69-1.53,1.53-1.53ZM16.45,18.11H3.55c-.84,0-1.53-.69-1.53-1.53v-8.46h15.96v8.46c0,.84-.69,1.53-1.53,1.53Z"/>
  <path class="st0" d="M8.4,16.31s-.02,0-.02,0c-.14,0-.27-.07-.37-.18l-2.47-2.95c-.18-.22-.15-.54.06-.72.22-.18.54-.15.72.06l2.12,2.52,4.9-4.81c.2-.2.52-.19.72,0,.2.2.19.52,0,.72l-5.29,5.19c-.1.09-.22.15-.36.15Z"/>
</svg>