<svg xmlns="http://www.w3.org/2000/svg" version="1.1" viewBox="0 0 50 50">
  <defs>
    <style>
      .st0 {fill: #c7c6c6;}
    </style>
  </defs>
  <path class="st0" d="M43.18,21.49l-13.41-13.41c-1.66-1.66-4.35-1.66-6.01,0l-12.83,12.83c-1.66,1.66-1.66,4.35,0,6.01l3.28,3.28-5.17,5.17c-1.27,1.27-1.27,3.33,0,4.6l2.25,2.25c1.27,1.27,3.33,1.27,4.6,0l5.17-5.17,3.28,3.28c1.66,1.66,4.35,1.66,6.01,0l12.83-12.83c1.66-1.66,1.66-4.35,0-6.01ZM28,9.85l2.43,2.43-3.34,3.34,1.77,1.77,3.34-3.34,2.54,2.54-3.34,3.34,1.77,1.77,3.34-3.34,4.9,4.9c.68.68.68,1.79,0,2.47l-9.03,9.03-15.88-15.88,9.03-9.03c.68-.68,1.79-.68,2.47,0ZM26.11,38.56l-4.16-4.16c-.49-.49-1.28-.49-1.77,0l-6.05,6.05c-.29.29-.77.29-1.06,0l-2.25-2.25c-.29-.29-.29-.77,0-1.06l6.05-6.05c.49-.49.49-1.28,0-1.77l-4.16-4.16c-.68-.68-.68-1.79,0-2.47l2.03-2.03,15.88,15.88-2.03,2.03c-.68.68-1.79.68-2.47,0Z"/>
</svg>