<svg xmlns="http://www.w3.org/2000/svg" version="1.1" viewBox="0 0 50 50">
  <defs>
    <style>
      .st0 {fill: #c7c6c6;}
    </style>
  </defs>
  <path class="st0" d="M39.07,8.09H10.93c-2.34,0-4.25,1.91-4.25,4.25v18.74c0,2.34,1.91,4.25,4.25,4.25h9.77l-1.52,6.41h-4.67v2.5h20.99v-2.5h-4.67l-1.52-6.41h9.77c2.34,0,4.25-1.91,4.25-4.25V12.34c0-2.34-1.91-4.25-4.25-4.25ZM28.26,41.74h-6.52l1.52-6.41h3.47l1.52,6.41ZM40.82,31.08c0,.96-.79,1.75-1.75,1.75H10.93c-.96,0-1.75-.79-1.75-1.75V12.34c0-.96.79-1.75,1.75-1.75h28.14c.96,0,1.75.79,1.75,1.75v18.74Z"/>
</svg>