<svg xmlns="http://www.w3.org/2000/svg" version="1.1" viewBox="0 0 50 50">
  <defs>
    <style>
      .st1 {fill: #ffd71f;}
    </style>
  </defs>
  <path class="st1" d="M19.56,27.65c1.66.85,3.58,1.34,5.62,1.34s3.84-.46,5.47-1.26c5.5,2.48,9.2,8.39,9.39,15.01h2.5c-.18-7.03-3.88-13.39-9.49-16.59,2.21-1.89,3.6-4.56,3.6-7.53,0-5.71-5.14-10.36-11.46-10.36s-11.46,4.65-11.46,10.36c0,2.9,1.33,5.53,3.46,7.41-5.74,3.15-9.52,9.56-9.7,16.7h2.5c.2-6.71,3.97-12.65,9.58-15.09ZM16.22,18.63c0-4.34,4.02-7.86,8.96-7.86s8.96,3.53,8.96,7.86-4.02,7.86-8.96,7.86-8.96-3.53-8.96-7.86Z"/>
</svg>