<svg xmlns="http://www.w3.org/2000/svg" version="1.1" viewBox="0 0 50 50">
  <defs>
    <style>
      .st0 {fill: #ffd71f;}
    </style>
  </defs>
  <path class="st0" d="M37.27,41.79V10.92c0-2.34-1.91-4.25-4.25-4.25h-16.03c-2.34,0-4.25,1.91-4.25,4.25v30.88h-1.68v2.5h27.89v-2.5h-1.68ZM15.23,10.92c0-.96.79-1.75,1.75-1.75h16.03c.96,0,1.75.79,1.75,1.75v30.88h-5.76v-4.28c0-1.52-1.23-2.75-2.75-2.75h-2.01c-1.79,0-3.25,1.46-3.25,3.25v3.78h-5.76V10.92ZM26.51,41.79h-3.01v-3.78c0-.41.34-.75.75-.75h2.01c.14,0,.25.11.25.25v4.28Z"/>
  <rect class="st0" x="23.51" y="12.04" width="3" height="3"/>
  <rect class="st0" x="29.01" y="12.04" width="3" height="3"/>
  <rect class="st0" x="18.01" y="12.04" width="3" height="3"/>
  <rect class="st0" x="23.51" y="17.02" width="3" height="3"/>
  <rect class="st0" x="29.01" y="17.02" width="3" height="3"/>
  <rect class="st0" x="18.01" y="17.02" width="3" height="3"/>
  <rect class="st0" x="23.51" y="22.01" width="3" height="3"/>
  <rect class="st0" x="29.01" y="22.01" width="3" height="3"/>
  <rect class="st0" x="18.01" y="22.01" width="3" height="3"/>
  <rect class="st0" x="23.51" y="26.99" width="3" height="3"/>
  <rect class="st0" x="29.01" y="26.99" width="3" height="3"/>
  <rect class="st0" x="18.01" y="26.99" width="3" height="3"/>
</svg>