<svg xmlns="http://www.w3.org/2000/svg" version="1.1" viewBox="0 0 112 112">
  <defs>
    <style>
      .st0 {fill: #333;}
      .st1 {fill: #a8aed3;}
    </style>
  </defs>
  <path class="st1" d="M90.54,10.98c-4.6-3-10.73-4.65-17.27-4.65s-12.65,1.67-17.2,4.62c-4.55-2.95-10.69-4.62-17.2-4.62s-12.67,1.65-17.27,4.65c-.71.46-1.13,1.25-1.13,2.09v27.18c0,.92.5,1.76,1.31,2.2.81.44,1.79.4,2.56-.1,3.74-2.44,9.04-3.84,14.54-3.84,6.17,0,11.88,1.69,15.66,4.64.13.1.27.18.41.26.01,0,.02.01.03.02.03.01.06.02.09.03.12.05.25.1.37.13.05.01.09.03.14.04.16.03.33.06.5.06,0,0,0,0,0,0,0,0,0,0,0,0s0,0,0,0c0,0,0,0,0,0,.17,0,.33-.02.5-.06.05,0,.09-.02.14-.03.13-.03.26-.08.38-.13.03-.01.05-.02.08-.03,0,0,.02-.01.03-.02.14-.07.28-.16.41-.26,3.78-2.95,9.49-4.64,15.66-4.64,5.49,0,10.79,1.4,14.54,3.84.77.5,1.75.54,2.56.1.81-.44,1.31-1.28,1.31-2.2V13.07c0-.85-.43-1.63-1.13-2.09ZM25.48,36.11V14.49c3.64-2.02,8.44-3.16,13.4-3.16,5.67,0,10.94,1.43,14.7,3.94v21.43c-4.19-2.06-9.32-3.19-14.7-3.19-4.84,0-9.46.91-13.4,2.6ZM86.68,36.11c-3.94-1.69-8.56-2.6-13.4-2.6-5.37,0-10.51,1.14-14.7,3.19V15.27c3.75-2.52,9.03-3.94,14.7-3.94,4.96,0,9.76,1.14,13.4,3.16v21.62Z"/>
  <circle class="st0" cx="42.8" cy="71.45" r="4.09"/>
  <circle class="st0" cx="68.97" cy="71.45" r="4.09"/>
  <path class="st0" d="M70.14,88.44h-28.13c-1.38,0-2.5-1.12-2.5-2.5s1.12-2.5,2.5-2.5h28.13c1.38,0,2.5,1.12,2.5,2.5s-1.12,2.5-2.5,2.5Z"/>
  <path class="st0" d="M97.52,60.07c-.45,0-.89.04-1.32.09v-2.19c0-6.94-5.65-12.58-12.59-12.58h-25.03v-6.94c3.64-1.08,6.3-4.45,6.3-8.43,0-4.85-3.95-8.8-8.8-8.8s-8.8,3.95-8.8,8.8c0,3.98,2.66,7.35,6.3,8.43v6.94h-25.03c-6.94,0-12.59,5.65-12.59,12.58v2.21c-.48-.06-.98-.11-1.48-.11-6.13,0-11.12,4.99-11.12,11.12v9.19c0,6.13,4.99,11.12,11.12,11.12.5,0,.99-.05,1.48-.11v1.7c0,6.94,5.65,12.58,12.59,12.58h55.06c6.94,0,12.59-5.65,12.59-12.58v-1.68c.43.05.87.09,1.32.09,6.13,0,11.12-4.99,11.12-11.12v-9.19c0-6.13-4.99-11.12-11.12-11.12ZM15.96,86.31c-.47.12-.97.19-1.48.19-3.37,0-6.12-2.74-6.12-6.12v-9.19c0-3.37,2.74-6.12,6.12-6.12.51,0,1,.07,1.48.19v21.05ZM52.28,30.02c0-2.09,1.7-3.8,3.8-3.8s3.8,1.7,3.8,3.8-1.7,3.8-3.8,3.8-3.8-1.7-3.8-3.8ZM91.2,93.09c0,4.18-3.4,7.58-7.59,7.58H28.55c-4.18,0-7.59-3.4-7.59-7.58v-35.11c0-4.18,3.4-7.58,7.59-7.58h55.06c4.18,0,7.59,3.4,7.59,7.58v35.11ZM103.63,80.38c0,3.37-2.74,6.12-6.12,6.12-.45,0-.89-.06-1.32-.16v-21.11c.43-.1.86-.16,1.32-.16,3.37,0,6.12,2.74,6.12,6.12v9.19Z"/>
</svg>