<svg xmlns="http://www.w3.org/2000/svg" version="1.1" viewBox="0 0 112 112">
  <defs>
    <style>
      .st0 {fill: #333;}
      .st1 {fill: #a8aed3;}
    </style>
  </defs>
  <circle class="st1" cx="55.82" cy="44.05" r="28.37"/>
  <path class="st0" d="M64.84,60.64c-2,0-3.89-.78-5.3-2.2l-3.78-3.78-3.78,3.78c-1.42,1.42-3.3,2.2-5.3,2.2s-3.89-.78-5.3-2.2c-1.42-1.42-2.2-3.3-2.2-5.3s.78-3.89,2.2-5.3l3.78-3.78-3.78-3.78c-2.92-2.92-2.92-7.68,0-10.61,2.92-2.92,7.68-2.92,10.61,0l3.78,3.78,3.78-3.78c2.93-2.92,7.68-2.92,10.61,0,2.92,2.92,2.92,7.68,0,10.61l-3.78,3.78,3.78,3.78c1.42,1.42,2.2,3.3,2.2,5.3s-.78,3.89-2.2,5.3c-1.42,1.42-3.3,2.2-5.3,2.2ZM55.76,48.62c.64,0,1.28.24,1.77.73l5.55,5.55c.94.94,2.59.94,3.54,0,.47-.47.73-1.1.73-1.77s-.26-1.3-.73-1.77l-5.55-5.55c-.98-.98-.98-2.56,0-3.54l5.55-5.55c.47-.47.73-1.1.73-1.77s-.26-1.3-.73-1.77c-.98-.97-2.56-.97-3.54,0l-5.55,5.55c-.98.98-2.56.98-3.54,0l-5.55-5.55c-.97-.97-2.56-.98-3.54,0-.97.97-.97,2.56,0,3.54l5.55,5.55c.98.98.98,2.56,0,3.54l-5.55,5.55c-.47.47-.73,1.1-.73,1.77s.26,1.3.73,1.77c.94.94,2.59.94,3.54,0l5.55-5.55c.49-.49,1.13-.73,1.77-.73Z"/>
  <path class="st0" d="M95.21,44.05c0-21.72-17.67-39.39-39.39-39.39S16.43,22.33,16.43,44.05c0,14.1,7.48,27.02,19.62,34.07v3.55c-2.04,1.44-3.37,3.81-3.37,6.49v.95c0,2.98,1.65,5.58,4.09,6.94,2.03,6.69,8.16,11.29,15.23,11.29h7.53c7.07,0,13.19-4.6,15.23-11.29,2.44-1.36,4.09-3.96,4.09-6.94v-.95c0-2.68-1.34-5.05-3.37-6.49v-3.48c12.22-7.03,19.74-19.98,19.74-34.14ZM21.43,44.05c0-18.96,15.43-34.39,34.39-34.39s34.39,15.43,34.39,34.39c0,12.81-7.05,24.48-18.41,30.45-.82.43-1.34,1.28-1.34,2.21v3.5h-29.43v-3.56c0-.92-.51-1.77-1.33-2.21-11.28-5.99-18.29-17.64-18.29-30.39ZM40.62,92.05c-1.62,0-2.95-1.32-2.95-2.95v-.95c0-1.62,1.32-2.95,2.95-2.95h30.27c1.62,0,2.95,1.32,2.95,2.95v.95c0,1.62-1.32,2.95-2.95,2.95h-30.27ZM59.52,102.34h-7.53c-3.92,0-7.42-2.07-9.36-5.29h26.24c-1.94,3.22-5.43,5.29-9.36,5.29Z"/>
  <path class="st0" d="M11.18,47.44h-4.77c-1.38,0-2.5-1.12-2.5-2.5s1.12-2.5,2.5-2.5h4.77c1.38,0,2.5,1.12,2.5,2.5s-1.12,2.5-2.5,2.5Z"/>
  <path class="st0" d="M12.95,72.42c-.74,0-1.46-.32-1.96-.94-.86-1.08-.68-2.65.4-3.51l3.73-2.97c1.08-.86,2.65-.68,3.51.4.86,1.08.68,2.65-.4,3.51l-3.73,2.97c-.46.37-1.01.54-1.55.54Z"/>
  <path class="st0" d="M16.78,25.29c-.48,0-.96-.14-1.39-.43l-3.96-2.66c-1.15-.77-1.45-2.32-.68-3.47.77-1.15,2.32-1.45,3.47-.68l3.96,2.66c1.15.77,1.45,2.32.68,3.47-.48.72-1.27,1.11-2.08,1.11Z"/>
  <path class="st0" d="M100.82,47.44h4.77c1.38,0,2.5-1.12,2.5-2.5s-1.12-2.5-2.5-2.5h-4.77c-1.38,0-2.5,1.12-2.5,2.5s1.12,2.5,2.5,2.5Z"/>
  <path class="st0" d="M99.05,72.42c.74,0,1.46-.32,1.96-.94.86-1.08.68-2.65-.4-3.51l-3.73-2.97c-1.08-.86-2.65-.68-3.51.4-.86,1.08-.68,2.65.4,3.51l3.73,2.97c.46.37,1.01.54,1.55.54Z"/>
  <path class="st0" d="M95.22,25.29c.48,0,.96-.14,1.39-.43l3.96-2.66c1.15-.77,1.45-2.32.68-3.47-.77-1.15-2.32-1.45-3.47-.68l-3.96,2.66c-1.15.77-1.45,2.32-.68,3.47.48.72,1.27,1.11,2.08,1.11Z"/>
</svg>