<svg xmlns="http://www.w3.org/2000/svg" version="1.1" viewBox="0 0 112 112">
  <defs>
    <style>
      .st0 {fill: #333;}
      .st1 {fill: #a8aed3;}
    </style>
  </defs>
  <path class="st0" d="M71.13,91.18c-1.38,0-2.5,1.12-2.5,2.5s1.12,2.5,2.5,2.5h11.29v6.87H14.65V25.59h15.43v3.76c0,1.38,1.12,2.5,2.5,2.5h31.92c1.38,0,2.5-1.12,2.5-2.5v-14.43c0-1.38-1.12-2.5-2.5-2.5h-4.35c-1.59-4.96-6.24-8.47-11.61-8.47s-10.02,3.52-11.61,8.47h-4.35c-1.38,0-2.5,1.12-2.5,2.5v5.67H12.15c-1.38,0-2.5,1.12-2.5,2.5v82.47c0,1.38,1.12,2.5,2.5,2.5h72.77c1.38,0,2.5-1.12,2.5-2.5v-9.37h12.44c1.38,0,2.5-1.12,2.5-2.5s-1.12-2.5-2.5-2.5h-28.72ZM99.85,54.31c1.38,0,2.5-1.12,2.5-2.5s-1.12-2.5-2.5-2.5h-12.44v-26.22c0-1.38-1.12-2.5-2.5-2.5h-11.51c-1.38,0-2.5,1.12-2.5,2.5s1.12,2.5,2.5,2.5h9.01v23.72h-11.29c-1.38,0-2.5,1.12-2.5,2.5s1.12,2.5,2.5,2.5h28.72ZM48.53,8.94c2.58,0,4.88,1.38,6.15,3.47h-12.29c1.27-2.09,3.57-3.47,6.15-3.47ZM35.07,23.09v-5.67h26.92v9.43h-26.92v-3.76Z"/>
  <path class="st0" d="M29.77,57.12c-.63,0-1.26-.24-1.75-.71l-5.23-5.11c-.99-.96-1.01-2.55-.04-3.54.96-.99,2.55-1.01,3.54-.04l3.47,3.38,8.47-8.47c.98-.98,2.56-.98,3.54,0,.98.98.98,2.56,0,3.54l-10.21,10.21c-.49.49-1.13.73-1.77.73Z"/>
  <path class="st0" d="M62.45,52.01h-15.19c-1.38,0-2.5-1.12-2.5-2.5s1.12-2.5,2.5-2.5h15.19c1.38,0,2.5,1.12,2.5,2.5s-1.12,2.5-2.5,2.5Z"/>
  <path class="st0" d="M29.77,75.76c-.63,0-1.26-.24-1.75-.71l-5.23-5.11c-.99-.96-1.01-2.55-.04-3.54.97-.99,2.55-1.01,3.54-.04l3.47,3.38,8.47-8.47c.98-.98,2.56-.98,3.54,0,.98.98.98,2.56,0,3.54l-10.21,10.21c-.49.49-1.13.73-1.77.73Z"/>
  <path class="st0" d="M67.55,70.65h-20.3c-1.38,0-2.5-1.12-2.5-2.5s1.12-2.5,2.5-2.5h20.3c1.38,0,2.5,1.12,2.5,2.5s-1.12,2.5-2.5,2.5Z"/>
  <path class="st0" d="M29.77,94.4c-.63,0-1.26-.24-1.75-.71l-5.23-5.11c-.99-.96-1.01-2.55-.04-3.54.97-.99,2.55-1.01,3.54-.04l3.47,3.38,8.47-8.47c.98-.98,2.56-.98,3.54,0,.98.98.98,2.56,0,3.54l-10.21,10.21c-.49.49-1.13.73-1.77.73Z"/>
  <path class="st0" d="M62.45,89.29h-15.19c-1.38,0-2.5-1.12-2.5-2.5s1.12-2.5,2.5-2.5h15.19c1.38,0,2.5,1.12,2.5,2.5s-1.12,2.5-2.5,2.5Z"/>
  <path class="st1" d="M89.01,72.85c3.59-1.31,6.16-4.74,6.16-8.79v-9.76h-19.96v9.76c0,4.04,2.57,7.48,6.16,8.79-3.59,1.31-6.16,4.74-6.16,8.79v9.54h19.96v-9.54c0-4.04-2.57-7.48-6.16-8.79Z"/>
</svg>