<svg xmlns="http://www.w3.org/2000/svg" version="1.1" viewBox="0 0 112 112">
  <defs>
    <style>
      .st0 {fill: #333;}
      .st1 {fill: #a8aed3;}
    </style>
  </defs>
  <path class="st0" d="M106.26,76.73h-3.63V15.4c0-1.38-1.12-2.5-2.5-2.5H11.87c-1.38,0-2.5,1.12-2.5,2.5v61.33h-3.63c-1.38,0-2.5,1.12-2.5,2.5v.3c0,10.79,8.78,19.56,19.56,19.56h66.38c10.79,0,19.56-8.78,19.56-19.56v-.3c0-1.38-1.12-2.5-2.5-2.5ZM14.37,17.9h83.26v58.83H14.37V17.9ZM89.19,94.1H22.81c-7.28,0-13.33-5.37-14.4-12.36h95.18c-1.06,6.99-7.12,12.36-14.4,12.36Z"/>
  <rect class="st1" x="19.4" y="23.19" width="73.19" height="53.54"/>
  <path class="st0" d="M41.28,67.44c-.86,0-1.7-.45-2.17-1.25l-8.43-14.58c-.45-.77-.45-1.73,0-2.5l8.43-14.58c.69-1.2,2.22-1.6,3.42-.91,1.2.69,1.6,2.22.91,3.42l-7.7,13.33,7.7,13.33c.69,1.2.28,2.72-.91,3.42-.39.23-.82.34-1.25.34Z"/>
  <path class="st0" d="M70.56,67.44c-.42,0-.85-.11-1.25-.34-1.2-.69-1.6-2.22-.91-3.42l7.7-13.33-7.7-13.33c-.69-1.2-.28-2.72.91-3.42,1.2-.69,2.72-.28,3.42.91l8.43,14.58c.45.77.45,1.73,0,2.5l-8.43,14.58c-.46.8-1.3,1.25-2.17,1.25Z"/>
  <path class="st0" d="M50.34,66.54c-.33,0-.66-.06-.97-.2-1.27-.54-1.87-2.01-1.33-3.28l11.74-27.7c.54-1.27,2.01-1.87,3.28-1.33,1.27.54,1.87,2.01,1.33,3.28l-11.74,27.7c-.4.95-1.33,1.52-2.3,1.52Z"/>
</svg>