<svg xmlns="http://www.w3.org/2000/svg" version="1.1" viewBox="0 0 112 112">
  <defs>
    <style>
      .st0 {fill: #333;}
      .st1 {fill: #a8aed3;}
    </style>
  </defs>
  <rect class="st1" x="33.96" y="34.64" width="44.09" height="42.72"/>
  <circle class="st0" cx="45.27" cy="56.28" r="3.21"/>
  <circle class="st0" cx="55.45" cy="56.28" r="3.21"/>
  <circle class="st0" cx="65.62" cy="56.28" r="3.21"/>
  <path class="st0" d="M105.96,20.31h-7.2V7.74c0-1-.59-1.9-1.5-2.29-.91-.4-1.97-.21-2.7.46l-15.43,14.39h-45.16c-1.38,0-2.5,1.12-2.5,2.5v9.33H6.04c-1.38,0-2.5,1.12-2.5,2.5v54.55c0,1.38,1.12,2.5,2.5,2.5h7.2v12.56c0,1,.59,1.9,1.5,2.29.32.14.66.21,1,.21.62,0,1.23-.23,1.71-.67l15.43-14.39h45.16c1.38,0,2.5-1.12,2.5-2.5v-9.33h25.42c1.38,0,2.5-1.12,2.5-2.5V22.81c0-1.38-1.12-2.5-2.5-2.5ZM75.54,86.69H31.9c-.63,0-1.24.24-1.71.67l-11.95,11.14v-9.31c0-1.38-1.12-2.5-2.5-2.5h-7.2v-49.55h22.92v40.22c0,1.38,1.12,2.5,2.5,2.5h41.58v6.83ZM75.54,74.86h-39.08v-37.72h39.08v37.72ZM103.46,74.86h-22.92v-40.22c0-1.38-1.12-2.5-2.5-2.5h-41.58v-6.83h43.64c.63,0,1.24-.24,1.71-.67l11.95-11.14v9.31c0,1.38,1.12,2.5,2.5,2.5h7.2v49.55Z"/>
</svg>