<svg xmlns="http://www.w3.org/2000/svg" version="1.1" viewBox="0 0 100 100">
  <defs>
    <style>
      .st0 {fill: #0e63a0;}
    </style>
  </defs>
  <path class="st0" d="M83.74,69.59c1.09-.99,1.87-2.01,2.84-3.08.1-.11.15-.14.13.04-4.51,9.87-13.41,17.11-24.04,19.43-15.25,3.33-29.98-1.85-40.39-13.16-9.62-10.45-14.65-27.16-7.58-40.33,1.74-3.24,4.35-5.95,6.58-8.84-.36,1.01-.85,1.97-1.21,2.98-6.42,17.98,5,37.27,20.77,45.78,12.98,7,31.5,7.57,42.89-2.82Z"/>
  <path class="st0" d="M88.61,47.07c-2.41,6.57-7.91,11.84-14.5,14.15-5.69,1.99-13.73,2.21-19.43.2-12.9-4.57-23.21-17.92-20.4-32.07.99-5,3.8-8.66,6.79-12.62-1.1,2.25-1.9,4.65-2.23,7.14-1.72,12.92,7.51,25.25,19.09,29.98,10.73,4.38,23.45,2.88,30.68-6.78Z"/>
  <path class="st0" d="M86.19,33.24c-.18.45-.45.92-.71,1.32-9.37,14.93-33.54,4.57-32.48-12.26.22-3.53,2.02-6.65,4.23-9.29-3.85,8.37,1.49,18.06,9.07,22.08,4.4,2.33,10.91,3.42,15.59,1.41,1.68-.72,3.11-1.89,4.29-3.27Z"/>
</svg>