<svg xmlns="http://www.w3.org/2000/svg" version="1.1" viewBox="0 0 100 100">
  <defs>
    <style>
      .st0 {fill: #0c7189;}
      .st1 {fill: #0c7188;}
    </style>
  </defs>
  <path class="st1" d="M91.45,90.65c-.82-.18-1.26-.97-1.87-1.45-4.9-3.94-12.7-6.02-16.24-10.96-.45-.62-1.44-2.25-1.61-2.93-.13-.51.12-.64.5-.88,1.52-.94,6.12-1.89,7.97-2.07,1.35-.13,3.08.01,4.37-.16.18-.02.33.06.24-.24-.15-.51-.98-1.02-1.4-1.35-3.62-2.74-7.69-5.43-11.95-6.99-1.55-.57-4.54-1.14-5.65-2.28-.75-.77-1.79-2.82-2.32-3.84-3.88-7.51-6.29-15.82-11.32-22.68-4.56-6.22-14.51-15.13-22.24-16.62-2.21-.43-5.56.15-7.28-1.14-.93-.7-1.57-1.4-2.66-2.04-1.77-1.04-10.22-5.39-8.7-.04.65,2.28,4.35,5.94,5.7,8.38,2.47,4.45,2.77,9.89,5.83,14.08.73,1.01,2.16,1.95,2.36,3.14.3,1.76-1.21,4.54-1.7,6.32-1.24,4.56-1.02,13.14,1.99,17.02.26.33,1.53,1.67,1.93,1.15.28-.37.6-4.44.78-5.37.56-2.92,1.61-4.75,3.59-6.93.34-.01.95,2.13,1.14,2.58,1.58,3.82,3.47,7.51,5.68,11,2.01,3.18,4.25,6.28,7.19,8.68-.62,0-1.47-.73-1.94-1.13-2.97-2.53-7.55-6.46-9.52-9.75-.88-1.47-1.42-3.16-2.38-4.58-1.06,2.59-.03,7.75-3.51,8.63-4.07,1.03-6.86-5.83-7.56-8.89-1.35-5.92-.41-10.6,1.16-16.29.16-.56.67-1.31.58-1.79-.08-.39-1.51-1.8-1.89-2.34-3.35-4.77-3.74-11.08-6.7-15.48-2.21-3.28-7.54-7.86-4.64-12.15s10.67-.32,13.88,1.93c.6.42,1.42,1.43,2.11,1.61,1.05.28,3.04.09,4.28.26,9.55,1.33,20.7,11.4,26.14,19.03,4.01,5.63,5.84,11.45,8.8,17.59.77,1.6,2.77,6.15,3.78,7.23.91.97,5.48,2.52,7.03,3.34,3.06,1.62,7.53,4.89,10.06,7.26.74.7,2.72,2.83,3.16,3.65.07.13.14.39.08.48-.09.13-2.57.79-2.94.87-1.5.32-3.04.36-4.54.64-1.63.31-3.18.94-4.83,1.16,1.42,2.54,4.32,3.5,6.59,5.06,2.57,1.77,3.93,3.56,5.93,5.81.4.45,1.16.88,1.56,1.43.44.6.54,1.29.97,1.86v.16Z"/>
  <path class="st0" d="M25.23,23.46c3.27-1.09,5.96,2.82,3.16,5.18-.18,0-1.18-2.27-1.41-2.64-.57-.9-1.48-1.5-1.75-2.54Z"/>
</svg>