<svg xmlns="http://www.w3.org/2000/svg" version="1.1" viewBox="0 0 100 100">
  <defs>
    <style>
      .st0 {fill: #6cc7e6;}
    </style>
  </defs>
  <path class="st0" d="M88.15,40c-3.59-2.38-7.86-3.97-12.03-5.06,1.34-5.46,2.39-11.58.96-17.11-.95-3.67-3.51-7.3-7.55-7.65h-3.58c-6.22.89-11.49,5.43-15.98,9.64-3.3-3.28-7.08-6.38-11.36-8.32-1.45-.65-2.98-1.19-4.56-1.32h-3.58c-1.51-.03-2.86.7-3.98,1.65-6.12,5.22-4.32,16.19-2.61,23.1-5.16,1.37-10.41,3.44-14.5,6.95-2.01,1.72-4.04,4.4-4.1,7.13,0,.07,0,.15,0,.22.12.09.12.43,0,.52v.75c.12.06.07.25.07.37-.13,2.74,2.04,5.45,4.02,7.17,4.06,3.52,9.37,5.55,14.5,6.99-1.14,4.46-1.92,9.2-1.51,13.8.45,5.01,2.63,10.25,8.18,10.95h3.28c1.55-.06,3.01-.6,4.43-1.2,4.47-1.91,8.27-5.11,11.78-8.43,3.38,3.3,7.25,6.51,11.63,8.39,1.44.62,2.94,1.17,4.52,1.25h3.21c4.86-.52,7.28-4.8,8.03-9.22.86-5.09-.04-10.54-1.28-15.54,4.19-1.14,8.45-2.73,12.05-5.13,3.12-2.08,6.26-5.01,6.55-8.96v-.22c-.12-.09-.12-.43,0-.52v-1.19c-.33-3.89-3.47-6.97-6.58-9.03ZM62.92,15.25c13.35-6.08,11.34,11.29,9.29,18.8-3.92-.94-7.92-1.45-11.93-1.9-2.34-3.26-4.87-6.38-7.52-9.38,2.95-2.86,6.38-5.8,10.16-7.52ZM30.41,57.66c.33-.86.69-1.9,1.09-2.72.06-.11.1-.28.24-.32,1.51,3.06,3.29,5.97,5.07,8.87,0,0,.09-.01.07.07-.12,0-.31.05-.37-.07-.78,0-1.76-.2-2.55-.32-1.69-.26-3.37-.62-5.06-.95.39-1.55.94-3.07,1.51-4.57ZM30.02,41.24c-.15-.42-1.22-3.31-1.11-3.46,2.6-.6,5.24-1.06,7.9-1.35l-5.11,8.94c-.64-1.34-1.17-2.74-1.68-4.14ZM33.76,50.02c-.03-.17,1.18-2.49,1.37-2.85,2-3.89,4.3-7.63,6.73-11.25l3.18-.23c4.38-.11,8.78-.16,13.14.24,2.98,4.48,5.7,9.13,8.06,13.98.02.16-.71,1.61-.84,1.88-2.1,4.26-4.63,8.4-7.32,12.28-5.39.4-10.81.44-16.2-.02-3.07-4.45-5.77-9.16-8.11-14.03ZM68.27,54.62c.13.04.18.21.24.32.39.8.76,1.87,1.09,2.72.57,1.49,1.11,3.02,1.51,4.56l-7.97,1.34c1.85-2.9,3.61-5.86,5.14-8.94ZM68.43,45.21s-.11.21-.16.17c-.68-1.54-1.59-2.96-2.37-4.45l-2.7-4.5c2.66.28,5.3.75,7.9,1.35.11.15-.98,3.09-1.13,3.52-.41,1.14-.98,2.88-1.53,3.91ZM50.03,25.63c1.1,1.12,2.07,2.35,3.1,3.54l2.01,2.64-10.29-.04c1-1.35,2.04-2.67,3.13-3.95.23-.27,1.89-2.22,2.04-2.2ZM37.08,15.25c3.78,1.72,7.21,4.65,10.16,7.52-2.66,3.01-5.19,6.12-7.52,9.38-4,.46-8.01.96-11.93,1.9-.58-2.41-1.11-4.87-1.34-7.34-.74-7.77.87-15.9,10.64-11.46ZM25.06,61.26c-2.38-.73-4.76-1.49-7.02-2.52-6.99-3.19-13.37-8.68-4.59-14.91,3.43-2.43,7.63-3.94,11.65-5.08,1.15,3.84,2.67,7.57,4.32,11.22-1.64,3.69-3.15,7.44-4.36,11.3ZM44.49,79.78c-3.15,2.67-9.05,6.88-13.36,6.13-5.12-.89-5.05-8.78-4.68-12.69.24-2.45.76-4.88,1.34-7.27,1.95.4,3.9.8,5.86,1.1,2.03.31,4.08.51,6.12.78,2.26,3.29,4.83,6.36,7.47,9.35.03.19-2.4,2.3-2.75,2.6ZM50.03,74.37c-.07.01-.76-.75-.89-.89-1.53-1.68-2.96-3.48-4.29-5.33.65.08,1.32.02,1.98.03,2.69.07,5.36.1,8.05,0,.1,0,.17-.04.26-.08.06.07-.14.29-.19.36-1,1.46-2.39,3.07-3.57,4.41-.17.19-1.25,1.47-1.35,1.48ZM72.25,83.47c-3.71,6.25-13.12-.63-16.81-3.76-.92-.79-1.88-1.64-2.67-2.52,2.64-2.98,5.2-6.06,7.46-9.35,4.02-.44,8.03-1,11.98-1.88.27,1.06.52,2.12.73,3.19.78,4.1,1.52,10.61-.69,14.32ZM86.63,56.1c-3.45,2.47-7.68,3.95-11.73,5.16-1.13-3.88-2.7-7.6-4.32-11.29,1.68-3.65,3.12-7.4,4.36-11.22,2.23.63,4.44,1.37,6.57,2.3,6.97,3.06,14.05,8.66,5.12,15.06Z"/>
  <path class="st0" d="M56.48,54.62c4-5.62-.51-13.16-7.34-12.56-6.02.53-9.16,7.62-5.67,12.56,3.17,4.48,9.83,4.47,13,0Z"/>
</svg>