<svg xmlns="http://www.w3.org/2000/svg" version="1.1" viewBox="0 0 112 112">
  <defs>
    <style>
      .st0 {fill: #333;}
      .st1 {fill: #a8aed3;}
    </style>
  </defs>
  <path class="st1" d="M107.99,90.13c0-1.38-1.12-2.5-2.5-2.5-17.39,0-29.94,2.78-38.23,5.64,7.43-5.7,19.74-11.88,38.23-11.88,1.38,0,2.5-1.12,2.5-2.5s-1.12-2.5-2.5-2.5c-29.19,0-44.29,14.46-49.49,20.78-5.2-6.32-20.3-20.78-49.49-20.78-1.38,0-2.5,1.12-2.5,2.5s1.12,2.5,2.5,2.5c18.5,0,30.81,6.17,38.23,11.88-8.3-2.86-20.84-5.64-38.23-5.64-1.38,0-2.5,1.12-2.5,2.5s1.12,2.5,2.5,2.5c18.44,0,31.17,3.29,38.86,6.23H6.51c-1.38,0-2.5,1.12-2.5,2.5s1.12,2.5,2.5,2.5h98.98c1.38,0,2.5-1.12,2.5-2.5s-1.12-2.5-2.5-2.5h-38.86c7.69-2.94,20.42-6.23,38.86-6.23,1.38,0,2.5-1.12,2.5-2.5Z"/>
  <g>
    <path class="st0" d="M26.2,65.79c0-8.01,6.51-14.52,14.52-14.52h30.55c8.01,0,14.52,6.51,14.52,14.52v13.07c1.6-.43,3.26-.81,5-1.13v-11.94c0-10.76-8.76-19.52-19.52-19.52h-30.55c-10.76,0-19.52,8.76-19.52,19.52v11.94c1.74.33,3.4.71,5,1.13v-13.07Z"/>
    <path class="st0" d="M78.88,68.34c0-1.38-1.12-2.5-2.5-2.5s-2.5,1.12-2.5,2.5v14.97c1.56-.77,3.23-1.51,5-2.2v-12.77Z"/>
    <path class="st0" d="M35.62,65.84c-1.38,0-2.5,1.12-2.5,2.5v12.77c1.77.69,3.44,1.43,5,2.2v-14.97c0-1.38-1.12-2.5-2.5-2.5Z"/>
  </g>
  <path class="st0" d="M56,42.71c-9.53,0-17.29-7.75-17.29-17.29s7.75-17.29,17.29-17.29,17.29,7.76,17.29,17.29-7.75,17.29-17.29,17.29ZM56,13.14c-6.77,0-12.29,5.51-12.29,12.29s5.51,12.29,12.29,12.29,12.29-5.51,12.29-12.29-5.51-12.29-12.29-12.29Z"/>
</svg>