<svg xmlns="http://www.w3.org/2000/svg" version="1.1" viewBox="0 0 112 112">
  <defs>
    <style>
      .st0 {fill: #333;}
      .st1 {fill: #a8aed3;}
    </style>
  </defs>
  <path class="st1" d="M39.39,17.79h25.02s6.26,2.77,6.26,17.4c0,0,3.23,1.7,3.23,18.89l6.3,9.87s.94,1.96,0,2.89h-7.15v9.19s-3.23,11.74-14.64,11.74c0,0,.43,4.34-.85,5.62H20.96s-2.04-.17-2.04-2.04v-3.74h-7.66s-7.83-6.64-7.83-14.13v-7.83s1.53-7.49,6.64-12.94,1.7-13.28,8-21.79c6.3-8.51,16.04-13.15,21.32-13.15Z"/>
  <path class="st0" d="M45.12,88.23H13.47c-1.38,0-2.5-1.12-2.5-2.5s1.12-2.5,2.5-2.5h26.82c-1.57-3.51-2.05-7.7-2.2-10.31-2.54-.4-4.58-1.45-6.08-3.14-2.73-3.07-2.57-7.04-2.48-7.99.04-4.61,1.97-6.79,3.59-7.8,3.37-2.09,7.85-.85,10.09,0,11.81-7.7,12.53-18.32,12.53-18.43.07-1.38,1.26-2.44,2.63-2.36,1.38.07,2.44,1.25,2.36,2.63-.03.57-.93,14.02-16.02,23.11-.73.44-1.63.48-2.39.1-1.44-.7-4.95-1.83-6.57-.81-1.02.64-1.23,2.35-1.23,3.68,0,.1,0,.2-.02.29,0,0-.25,2.61,1.26,4.27.97,1.07,2.57,1.62,4.77,1.62.67,0,1.31.27,1.78.75.47.48.73,1.13.72,1.8-.06,3.92.86,10.96,3.62,13.11.84.66,1.17,1.78.82,2.78-.35,1.01-1.3,1.68-2.36,1.68Z"/>
  <circle class="st0" cx="62.56" cy="55.32" r="2.77"/>
  <circle class="st0" cx="88.61" cy="55.32" r="2.77"/>
  <path class="st0" d="M108.05,63.12l-7.24-9.43c1.02-10.94-1.25-16.66-2.89-19.27,4.93-7.93,1.88-14.78,1.74-15.09-.41-.89-1.29-1.45-2.27-1.45h-32.8c.57.33,2.42,1.61,3.93,5h27.01c.39,2.02.5,5.86-2.7,10.13-.79,1.05-.63,2.52.36,3.38.04.04,4.02,4.18,2.55,17.76-.07.64.11,1.28.5,1.79l4.76,6.19h-3.27c-.74,0-1.44.33-1.91.89s-.68,1.31-.55,2.04c.46,2.67.84,10.57-2.93,15.04-2.07,2.46-5.09,3.65-9.25,3.65-1.38,0-2.5,1.12-2.5,2.5v5.45c0,1.38,1.12,2.5,2.5,2.5s2.5-1.12,2.5-2.5v-3.07c4.46-.47,8.01-2.25,10.57-5.3,4.23-5.03,4.54-12.21,4.33-16.19h5.58c.95,0,1.82-.54,2.24-1.4s.32-1.87-.26-2.63Z"/>
</svg>