<svg xmlns="http://www.w3.org/2000/svg" version="1.1" viewBox="0 0 112 112">
  <defs>
    <style>
      .st0 {fill: #333;}
      .st1 {fill: #a8aed3;}
    </style>
  </defs>
  <path class="st0" d="M84.92,74.42c-1.38,0-2.5-1.12-2.5-2.5v-21.11c0-1.38,1.12-2.5,2.5-2.5s2.5,1.12,2.5,2.5v21.11c0,1.38-1.12,2.5-2.5,2.5Z"/>
  <circle class="st0" cx="85.05" cy="80.05" r="3.15"/>
  <circle class="st0" cx="76.03" cy="80.05" r="3.15"/>
  <circle class="st0" cx="67.01" cy="80.05" r="3.15"/>
  <path class="st1" d="M76.58,37.15c0-18.19-16.17-32.94-36.13-32.94S4.32,18.96,4.32,37.15s16.17,32.94,36.13,32.94c1.02,0,2.03-.05,3.04-.12l14.94,10.6c1.11.79,2.64-.06,2.55-1.42l-.91-14.34c9.93-5.87,16.51-16.06,16.51-27.65Z"/>
  <path class="st0" d="M40.59,47.82c-1.38,0-2.5-1.12-2.5-2.5v-5.62c0-1.38,1.12-2.5,2.5-2.5,3.27,0,5.93-2.66,5.93-5.93s-2.66-5.93-5.93-5.93-5.93,2.66-5.93,5.93c0,1.38-1.12,2.5-2.5,2.5s-2.5-1.12-2.5-2.5c0-6.03,4.9-10.93,10.93-10.93s10.93,4.9,10.93,10.93c0,5.17-3.6,9.51-8.43,10.64v3.41c0,1.38-1.12,2.5-2.5,2.5Z"/>
  <circle class="st0" cx="40.59" cy="52.47" r="3.12"/>
  <path class="st0" d="M76.01,31.37c.32,1.66.51,3.37.55,5.1,14.78,2.15,26.11,13.98,26.11,28.21,0,15.75-13.88,28.56-30.95,28.56-1.8,0-3.65-.15-5.49-.46-.72-.12-1.46.08-2.02.56l-7.46,6.29.45-8.07c.05-.96-.45-1.87-1.29-2.33-7.64-4.2-12.9-11.26-14.57-19.17-.3,0-.6.02-.9.02-1.43,0-2.83-.08-4.22-.23,1.58,9.33,7.33,17.75,15.9,22.96l-.68,12.32c-.06,1,.49,1.93,1.38,2.38.35.18.74.26,1.12.26.58,0,1.15-.2,1.61-.59l11.03-9.29c1.73.23,3.45.35,5.15.35,19.82,0,35.95-15.06,35.95-33.56,0-17.15-13.85-31.33-31.66-33.32Z"/>
</svg>