<svg xmlns="http://www.w3.org/2000/svg" version="1.1" viewBox="0 0 112 112">
  <defs>
    <style>
      .st0 {fill: #333;}
      .st1 {fill: #a8aed3;}
    </style>
  </defs>
  <path class="st0" d="M104.14,43.73l-.04-.04,1.71-1.71c2.99-2.99,2.99-7.86,0-10.85l-4.78-4.78c-2.99-2.99-7.86-2.99-10.85,0l-1.71,1.71-.04-.04c-.98-.98-2.56-.98-3.54,0l-54.88,54.88s-.02.02-.03.04c-.07.07-.12.14-.18.22-.04.06-.09.11-.13.17-.04.07-.08.14-.11.21-.04.07-.08.15-.11.23-.02.06-.04.13-.06.19-.03.09-.06.19-.07.28,0,.01,0,.03-.01.04l-2.89,18.6c-.12.79.14,1.59.7,2.15s1.36.82,2.15.7l18.6-2.89s.03,0,.04-.01c.1-.02.19-.05.29-.07.06-.02.13-.03.19-.06.08-.03.15-.07.23-.11.07-.04.15-.07.21-.11.06-.04.11-.09.17-.13.08-.06.15-.11.22-.18.01-.01.02-.02.04-.03l54.88-54.88c.98-.98.98-2.56,0-3.54ZM35.31,84.67l45.69-45.69,4.32,4.32-45.69,45.69-4.32-4.32ZM86.66,33.32l12.17,12.17-2.12,2.12-12.17-12.17,2.12-2.12ZM88.86,46.83l4.32,4.32-45.69,45.69-4.32-4.32,45.69-45.69ZM93.71,29.89c1.04-1.04,2.74-1.04,3.78,0l4.78,4.78c1.04,1.04,1.04,2.74,0,3.78l-1.71,1.71-8.56-8.56,1.71-1.71ZM31.89,100.27l1.61-10.35,8.74,8.74-10.35,1.61Z"/>
  <path class="st1" d="M41.35,43.57c6.35-6.35,16.59-6.42,23.04-.23l13.81-13.81-4.15-4.15-5.97,4.49c-2.47-1.47-5.11-2.55-7.82-3.24l-1.04-7.32h-12.43s-1.04,7.32-1.04,7.32c-2.61.66-5.14,1.68-7.52,3.05l-6.04-4.54-8.79,8.79,4.44,5.9c-1.54,2.51-2.66,5.19-3.38,7.96l-6.86.97v12.43s6.73.95,6.73.95c.68,2.83,1.78,5.58,3.31,8.14l-4.54,6.04,4.15,4.15,13.87-13.87c-6.19-6.45-6.12-16.69.23-23.04Z"/>
  <g>
    <path class="st0" d="M85.46,24.77c-.64,0-1.28-.24-1.77-.73-.19-.19-.38-.38-.57-.56-.99-.96-1.02-2.54-.06-3.53.96-1,2.54-1.02,3.53-.06.22.21.43.42.64.63.98.98.97,2.56,0,3.54-.49.49-1.13.73-1.77.73Z"/>
    <path class="st0" d="M14.33,83.39c-.82,0-1.61-.4-2.09-1.13l-.06-.09c-.31-.46-.61-.92-.9-1.38-.73-1.17-.37-2.71.8-3.44,1.17-.73,2.71-.37,3.44.8.26.42.53.83.8,1.24l.09.14c.76,1.16.43,2.7-.72,3.46-.42.28-.9.41-1.37.41ZM9.79,74.85c-.99,0-1.92-.59-2.32-1.56-.23-.56-.44-1.11-.64-1.67-.47-1.3.2-2.73,1.5-3.2,1.3-.47,2.73.2,3.2,1.5.18.5.37,1,.57,1.5.52,1.28-.1,2.74-1.38,3.26-.31.12-.63.18-.94.18ZM7.11,65.55c-1.19,0-2.25-.85-2.46-2.07-.1-.59-.2-1.18-.28-1.77-.19-1.37.77-2.63,2.14-2.82,1.37-.19,2.63.77,2.82,2.14.07.53.16,1.06.25,1.59.24,1.36-.67,2.66-2.03,2.9-.15.03-.29.04-.44.04ZM6.45,55.89s-.06,0-.09,0c-1.38-.05-2.46-1.21-2.41-2.59.02-.6.05-1.19.1-1.79.1-1.38,1.3-2.4,2.67-2.31,1.38.1,2.41,1.3,2.31,2.67-.04.53-.07,1.07-.09,1.6-.05,1.35-1.16,2.41-2.5,2.41ZM7.8,46.32c-.2,0-.4-.02-.61-.07-1.34-.33-2.16-1.69-1.82-3.03.14-.58.3-1.15.46-1.73.38-1.33,1.77-2.09,3.09-1.71,1.33.38,2.09,1.77,1.71,3.09-.15.52-.29,1.03-.42,1.55-.28,1.14-1.3,1.9-2.42,1.9ZM11.1,37.22c-.37,0-.74-.08-1.09-.25-1.24-.6-1.76-2.1-1.16-3.34.26-.54.53-1.07.81-1.6.65-1.22,2.16-1.68,3.38-1.03,1.22.65,1.68,2.16,1.03,3.38-.25.47-.5.95-.73,1.43-.43.89-1.32,1.41-2.25,1.41ZM16.22,29.01c-.54,0-1.08-.17-1.54-.53-1.09-.85-1.28-2.42-.43-3.51.37-.47.74-.94,1.13-1.39.89-1.06,2.47-1.19,3.52-.3,1.06.89,1.19,2.47.3,3.52-.35.41-.68.83-1.01,1.25-.49.63-1.23.96-1.97.96ZM22.95,22.05c-.71,0-1.42-.3-1.92-.9-.89-1.06-.75-2.64.31-3.52.46-.38.92-.76,1.39-1.12,1.09-.85,2.66-.65,3.51.44.85,1.09.65,2.66-.44,3.51-.42.33-.84.67-1.25,1.01-.47.39-1.04.58-1.6.58ZM78.64,19.14c-.48,0-.97-.14-1.4-.43-.45-.3-.9-.59-1.35-.88-1.17-.73-1.53-2.27-.8-3.44.73-1.17,2.27-1.53,3.44-.8.51.31,1.01.64,1.5.97,1.14.77,1.45,2.33.67,3.47-.48.72-1.27,1.1-2.07,1.1ZM30.97,16.64c-.89,0-1.76-.48-2.21-1.32-.65-1.22-.19-2.73,1.03-3.38.53-.28,1.06-.55,1.59-.81,1.24-.61,2.74-.09,3.34,1.15.61,1.24.09,2.74-1.15,3.34-.48.23-.96.48-1.43.73-.38.2-.78.3-1.18.3ZM70.1,14.6c-.31,0-.63-.06-.94-.18-.5-.2-1-.39-1.5-.58-1.3-.47-1.97-1.9-1.5-3.2.47-1.3,1.91-1.97,3.2-1.5.56.2,1.12.42,1.67.64,1.28.52,1.9,1.97,1.38,3.25-.39.97-1.33,1.56-2.32,1.56ZM39.93,13c-1.09,0-2.09-.71-2.4-1.81-.38-1.33.39-2.71,1.71-3.09.57-.17,1.15-.32,1.73-.46,1.34-.33,2.7.48,3.03,1.82.33,1.34-.48,2.7-1.82,3.03-.52.13-1.04.27-1.55.42-.23.07-.46.1-.69.1ZM60.81,11.93c-.15,0-.29-.01-.44-.04-.53-.09-1.06-.18-1.59-.25-1.37-.19-2.32-1.46-2.13-2.82.19-1.37,1.45-2.32,2.82-2.13.59.08,1.18.18,1.77.28,1.36.24,2.27,1.54,2.02,2.9-.22,1.21-1.27,2.06-2.46,2.06ZM49.46,11.32c-1.3,0-2.4-1.01-2.49-2.33-.1-1.38.94-2.57,2.32-2.67.6-.04,1.19-.07,1.79-.09,1.36-.06,2.53,1.04,2.58,2.42.05,1.38-1.04,2.54-2.42,2.58-.53.02-1.07.04-1.6.08-.06,0-.12,0-.18,0Z"/>
    <path class="st0" d="M19.98,90.24c-.64,0-1.28-.24-1.77-.73-.21-.21-.42-.42-.62-.64-.96-.99-.93-2.58.06-3.54,1-.96,2.58-.93,3.54.06.19.19.38.39.56.58.98.98.97,2.56,0,3.54-.49.49-1.13.73-1.77.73Z"/>
  </g>
</svg>