<svg xmlns="http://www.w3.org/2000/svg" version="1.1" viewBox="0 0 330 45">
  <defs>
    <style>
      .st0 {fill: #a1a1a1;}
      .st1 {fill: #333333;}
    </style>
  </defs>
  <g>
    <path class="st1" d="M18.98.83H2.2c-.2,0-.39.08-.53.22s-.22.33-.22.53l.02,41.92c0,.41.34.75.75.75h8.27c.2,0,.39-.08.53-.22.14-.14.22-.33.22-.53l-.02-7.66h7.75c9.72,0,17.64-7.85,17.64-17.5S28.71.83,18.98.83ZM18.98,26.06h-7.76v-15.46h7.76c4.34,0,7.86,3.47,7.86,7.73s-3.53,7.73-7.86,7.73Z"/>
    <path class="st1" d="M58.44.84c-9.65,0-17.51,7.94-17.51,17.69v24.97c0,.41.34.75.75.75h8.27c.41,0,.75-.34.75-.75v-7.61h15.47v7.61c0,.41.34.75.75.75h8.27c.41,0,.75-.34.75-.75v-24.97c0-9.75-7.85-17.69-17.51-17.69ZM50.71,18.53c0-4.37,3.47-7.92,7.73-7.92s7.73,3.55,7.73,7.92v7.58h-15.47v-7.58Z"/>
    <path class="st1" d="M116.5.75h-8.27c-.41,0-.75.34-.75.75v16.11h-15.57V1.5c0-.41-.34-.75-.75-.75h-8.27c-.41,0-.75.34-.75.75v42c0,.41.34.75.75.75h8.27c.41,0,.75-.34.75-.75v-16.11h15.57v16.11c0,.41.34.75.75.75h8.27c.41,0,.75-.34.75-.75V1.5c0-.41-.34-.75-.75-.75Z"/>
  </g>
  <g>
    <path class="st0" d="M135.75,18.47l-10.35-.04v25.52h6.23v-4.82h4.12c5.74,0,10.41-4.64,10.41-10.33s-4.67-10.33-10.41-10.33ZM139.93,28.8c0,2.26-1.87,4.1-4.18,4.1h-4.12v-8.2h4.12c2.3,0,4.18,1.84,4.18,4.1Z"/>
    <path class="st0" d="M161.03,18.15c-7.19,0-13.05,5.85-13.05,13.05s5.85,13.05,13.05,13.05,13.05-5.85,13.05-13.05-5.85-13.05-13.05-13.05ZM167.85,31.2c0,3.76-3.06,6.82-6.82,6.82s-6.82-3.06-6.82-6.82,3.06-6.82,6.82-6.82,6.82,3.06,6.82,6.82Z"/>
    <path class="st0" d="M315.5,17.71c-7.2,0-13.05,5.85-13.05,13.05s5.85,13.05,13.05,13.05,13.05-5.85,13.05-13.05-5.85-13.05-13.05-13.05ZM322.31,30.75c0,3.76-3.06,6.82-6.82,6.82s-6.82-3.06-6.82-6.82,3.06-6.82,6.82-6.82,6.82,3.06,6.82,6.82Z"/>
    <polygon class="st0" points="278.57 17.92 272.34 17.92 272.34 43.45 290.75 43.45 290.75 37.22 278.57 37.22 278.57 17.92"/>
    <rect class="st0" x="293.15" y="17.92" width="6.23" height="25.52"/>
    <path class="st0" d="M255.02,18.15c-7.19,0-13.05,5.85-13.05,13.05s5.85,13.05,13.05,13.05,13.05-5.85,13.05-13.05-5.85-13.05-13.05-13.05ZM261.83,31.2c0,3.76-3.06,6.82-6.82,6.82s-6.82-3.06-6.82-6.82,3.06-6.82,6.82-6.82,6.82,3.06,6.82,6.82Z"/>
    <polygon class="st0" points="199.09 24.64 206.32 24.64 206.32 43.93 212.55 43.93 212.55 24.64 219.78 24.64 219.78 18.41 199.09 18.41 199.09 24.64"/>
    <polygon class="st0" points="222.28 43.94 228.51 43.94 228.51 34.29 235.65 34.29 235.65 28.06 228.51 28.06 228.51 24.64 240.15 24.64 240.15 18.41 222.28 18.41 222.28 43.94"/>
    <path class="st0" d="M197.92,28.81c0-5.7-4.67-10.33-10.41-10.33l-10.35-.04v25.52h6.23v-4.82h4.16l2.09,4.79h6.8l-2.92-6.69c2.77-1.94,4.4-5.05,4.4-8.43ZM191.69,28.81c0,2.26-1.87,4.1-4.18,4.1h-4.12v-8.2h4.12c2.3,0,4.18,1.84,4.18,4.1Z"/>
  </g>
</svg>