<svg xmlns="http://www.w3.org/2000/svg" version="1.1" viewBox="0 0 50 50">
  <defs>
    <style>
      .st0 { fill: #ffffff; }
    </style>
  </defs>
  <path class="st0" d="M8.2,47.4c-1.47,0-2.85-.57-3.89-1.61-1.1-1.1-1.7-2.57-1.67-4.13.02-1.56.66-3.01,1.8-4.08l21.47-20.2c-1.4-3.92-.51-8.29,2.35-11.32,2.56-2.71,6.27-3.94,9.94-3.31.65.11,1.18.58,1.38,1.21.2.64.03,1.34-.44,1.81l-3.77,3.77c-.88.88-.88,2.31,0,3.19l1.84,1.84c.88.88,2.31.88,3.19,0l3.77-3.77c.47-.47,1.17-.64,1.8-.44.64.2,1.11.75,1.23,1.41.6,3.53-.55,7.15-3.08,9.68-3.06,3.07-7.54,4.04-11.57,2.58l-20.35,21.63c-1.03,1.09-2.42,1.71-3.92,1.73-.03,0-.06,0-.09,0ZM36.3,4.6c-2.47,0-4.85,1.01-6.58,2.84-2.47,2.62-3.14,6.48-1.71,9.82l.28.64L5.81,39.04c-.74.7-1.15,1.64-1.17,2.65-.02,1.01.37,1.97,1.09,2.69.67.67,1.55,1.02,2.53,1.02.95-.01,1.84-.41,2.5-1.1l21.29-22.63.65.28c3.44,1.5,7.37.75,10.02-1.9,1.98-1.98,2.92-4.76,2.58-7.53l-3.47,3.47c-1.66,1.66-4.36,1.66-6.02,0l-1.84-1.84c-1.66-1.66-1.66-4.36,0-6.02l3.47-3.47c-.38-.05-.76-.07-1.13-.07Z"/>
</svg>