<svg xmlns="http://www.w3.org/2000/svg" version="1.1" viewBox="0 0 50 50">
  <defs>
    <style>
      .st0 { fill: #ffffff; }
    </style>
  </defs>
  <path class="st0" d="M42.27,12.33c0-.09-.02-.18-.05-.26-.01-.03-.02-.06-.03-.09-.05-.1-.11-.2-.19-.29,0,0,0,0,0,0l-8.01-8.01s0,0,0,0c-.08-.08-.18-.14-.29-.19-.03-.01-.06-.02-.09-.03-.09-.03-.18-.05-.27-.05-.02,0-.04-.01-.06-.01H11.03c-1.83,0-3.31,1.49-3.31,3.31v36.6c0,1.83,1.49,3.31,3.31,3.31h27.95c1.83,0,3.31-1.49,3.31-3.31V12.4s-.01-.04-.01-.06ZM34.27,6.8l4.6,4.6h-4.6v-4.6ZM38.97,44.61H11.03c-.72,0-1.31-.59-1.31-1.31V6.7c0-.72.59-1.31,1.31-1.31h21.25v7.01c0,.55.45,1,1,1h7.01v29.91c0,.72-.59,1.31-1.31,1.31Z"/>
  <path class="st0" d="M33.91,20.97h-17.81c-.55,0-1-.45-1-1s.45-1,1-1h17.81c.55,0,1,.45,1,1s-.45,1-1,1Z"/>
  <path class="st0" d="M33.91,27.93h-17.81c-.55,0-1-.45-1-1s.45-1,1-1h17.81c.55,0,1,.45,1,1s-.45,1-1,1Z"/>
  <path class="st0" d="M33.91,34.9h-17.81c-.55,0-1-.45-1-1s.45-1,1-1h17.81c.55,0,1,.45,1,1s-.45,1-1,1Z"/>
</svg>