<svg xmlns="http://www.w3.org/2000/svg" version="1.1" viewBox="0 0 30 30">
  <defs>
    <style>
      .st0 {fill: #1b6ba5;}
      .st1 {fill: #1471b7;}
      .st2 {fill: #2985c4;}
      .st3 {fill: #1a79bf;}
      .st4 {fill: #3e98d5;}
      .st5 {fill: #57a8de;}
      .st6 {fill: #2b78ac;}
      .st7 {fill: #3b7dab;}
    </style>
  </defs>
  <path class="st4" d="M19.04,24.79l.06-.05c.36.07.75-.15.83-.51,0-1.46.01-2.92.03-4.37l.04-.31c.03-.44.04-.94.04-1.48v-5.06s0-.06.02-.06c1.57-.02,3.2-.02,4.77,0l.04.06s-.02-.07.02-.12l.03-1.42c0-.07.03-.1.1-.07,0,3.47,0,6.95,0,10.42-.04.41-.25.76-.6.98l-4.31,2.08c-.32.12-.76.13-1.05-.08Z"/>
  <path class="st2" d="M10.9,12.59h.07c1.02.79,2.05,1.58,3.08,2.38l.06.02c1.06.85,2.14,1.69,3.24,2.51l.06.1c-.34.03-.67.06-1.01.06h-5.06s-.04.1-.1.06c-.09-.13-.32-.23-.4-.31l-.15-.08c-.77-.65-1.51-1.34-2.24-2.03-.04-.04-.07-.08-.11-.13s-.06-.09-.09-.14c-.99-.9-1.95-1.87-2.98-2.75-.22-.25-.32-.54-.22-.87.08-.28.65-.75.89-.97.4-.36.77-.8,1.36-.53,1.18.91,2.42,1.78,3.6,2.68Z"/>
  <path class="st5" d="M25,11.39c-.05.03-.03.12-.03.17,0,.44-.03.88-.03,1.33,0,.03-.06.11-.08.11h-4.83c-.01,2.15.01,4.29,0,6.44,0,.06-.03.1-.03.1,0,.03-.02.03-.03,0l-.04-.05c.07-2.82.07-5.66.01-8.52,0-.17.03-.34.06-.5-.08-.41-.08-.82,0-1.23l-.04-.09c0-1,0-2.01,0-3.02.03-.57-.33-.95-.9-.83l-.07-.05c.27-.17.52-.21.84-.18,1.32.56,2.63,1.18,3.92,1.82.59.3,1.15.49,1.25,1.25,0,1.09,0,2.17,0,3.26Z"/>
  <path class="st6" d="M20,9.23c0,.41,0,.82,0,1.23l-.03.1c-1.95,1.48-3.9,2.96-5.85,4.44l-.07-.03-.06.02c-1.01-.78-2.02-1.54-3.04-2.3-.05-.03-.05-.08-.05-.09,1.11-1.01,2.21-2.04,3.33-3.03.15-.09.28-.19.41-.3l.04.03.02-.06h3.87l.04.06c.08.03.11.11.09.24.06-.08.14-.09.22-.03.12-.07.24-.06.37-.05-.07-.42.29-.9.46-.28.15-.07.23-.05.24.06Z"/>
  <path class="st3" d="M17.41,17.59c.57.31,1.11.74,1.63,1.14.24.15.45.34.62.56.03.05.02.11-.01.18.01.19-.03.34-.13.44-.11.4-.16.8-.14,1.22,0,.22-.05.27-.22.37l-.06.03c.06.35-.02.6-.17.91v.36c0,.19-.26.47-.33.22l-.02.06c-.42,0-.83,0-1.25,0l-.11-.06c.12.04.22.12.29.25.13.03.27.19.17.31-.05-.02-.09-.04-.12-.08-2.16-1.84-4.18-3.93-6.32-5.79l.08-.12c2.03-.01,4.06,0,6.09,0Z"/>
  <path class="st0" d="M10.84,17.41l-3.43,2.61c-.19.13-.4.17-.63.14-.29-.04-.98-.71-1.22-.94-.49-.47-.83-.86-.29-1.5,1.01-.88,1.96-1.82,2.98-2.69.85.78,1.74,1.62,2.59,2.38Z"/>
  <path class="st7" d="M20,9.23c-.08-.11-.18.02-.26,0-.12-.03-.01-.4-.31-.24-.09.05-.07.51-.08.52-.05.05-.45-.12-.4.22-.07,0,0-.13-.06-.17-.15-.1-.17.12-.16.23h-.09c0-.17.02-.33-.03-.49h-3.93c-.06,0-.27.37-.45.28.04-.06.1-.12.15-.17,1.42-1.27,2.79-2.62,4.23-3.86.12-.1.24-.21.37-.29.54-.13.98.12,1.02.69.08,1.02,0,2.24,0,3.29Z"/>
  <path class="st1" d="M19.97,19.54h.03c0,1.56.01,3.11,0,4.67-.06.43-.55.69-.95.58-.14-.04-.59-.45-.68-.59-.05-.07-.11-.12-.19-.15-.06-.06-.1-.08-.15-.15-.05-.07-.11-.12-.19-.15-.05-.05-.12-.08-.15-.15-.05-.13,0-.18-.21-.26l-.26-.3h1.37s.07.06.14.02c.18-.11.1-.45.13-.61.02-.11.16-.36.18-.44.03-.14-.03-.36,0-.49,0-.03.07-.04.09-.07.02-.02.02-.07.03-.07.01,0,.09.06.11-.03.06-.21.02-.52.04-.74.01-.13.1-.61.14-.72.01-.04.07-.04.09-.1.04-.15,0-.37.11-.5.11-.03.3.14.31.25Z"/>
  <path class="st3" d="M18.37,24.2c-.1,0-.13-.1-.19-.15.19-.03.15.1.19.15Z"/>
  <path class="st3" d="M17.84,23.74c.18-.01.13.08.19.15-.1,0-.13-.1-.19-.15Z"/>
</svg>