<svg xmlns="http://www.w3.org/2000/svg" version="1.1" viewBox="0 0 30 30">
  <defs>
    <style>
      .st0 {fill: #0f63a0;}
      .st1 {fill: #111925;}
      .st2 {fill: #121925;}
    </style>
  </defs>
  <path class="st0" d="M23.53,14.43c-1.07,2.4-3.7,4.14-6.3,4.42-3.81.41-7.26-1.15-9.47-4.25-2.02-2.83-2.64-6.87-.27-9.71.05-.06.47-.55.51-.49-.65,2.74-.4,5.57,1.29,7.88,1.21,1.66,3.58,3.37,5.54,3.97,3,.91,6.4.4,8.69-1.82Z"/>
  <path class="st0" d="M24.1,9.75c-.66,1.5-1.82,2.55-3.37,3.08-3.03,1.05-6.13-.05-8.07-2.53-1.68-2.15-2.01-5.38-.03-7.45-.22,1.43-.27,2.87.26,4.24,1.08,2.8,4.72,4.9,7.68,4.49,1.52-.21,2.24-.82,3.35-1.74.06-.05.08-.12.18-.1Z"/>
  <path class="st1" d="M13.04,22.24c-.11,1.05-.62,2.08-.41,3.14h1.18l.67-3.14h1.13l-.91,4.22c-.75-.05-1.57.06-2.31,0-1.45-.13-1.01-1.59-.83-2.58.1-.55.23-1.09.34-1.63h1.13Z"/>
  <path class="st0" d="M23.27,6.72c-.93,1.47-2.63,1.74-4.23,1.32-2.52-.65-4.44-4.09-2.46-6.26-.14.67-.13,1.34.03,2.01.48,2.01,2.85,3.59,4.88,3.44.62-.04,1.2-.3,1.77-.51Z"/>
  <path class="st1" d="M27.7,21.58c-.66,1.2-1.69,2.15-2.42,3.31-.31.5-.54,1.04-.8,1.57h-1.21c.14-.3.24-.59.23-.92,0-.7-.39-1.32-.44-2.01h1.23l.15.67c.69-.81,1.22-1.77,1.88-2.62h1.36Z"/>
  <path class="st1" d="M24.2,23.27h-2.57l-.67,3.19h-1.13l.88-4.26c.84.05,1.76-.07,2.6,0,.72.06.87.4.9,1.08Z"/>
  <path class="st1" d="M5.38,23.53c-.18.84-.34,1.68-.55,2.51-.26,1.03-.3,2.08-1.58,2.17-.13,0-.94.02-.95-.08.09-.14.19-.95.26-1,.04-.03.46,0,.61-.08.52-.27.68-2.97,1.06-3.52h1.16Z"/>
  <path class="st2" d="M5.64,22.19c0,.14-.15,1.02-.23,1.02-.02,0-.04-.04-.05-.04h-1.11l.21-.98h1.18Z"/>
  <path class="st1" d="M6.55,22.16c-.9,1.32-1.43,4.12.81,4.3,1.05.09,2.22-.07,3.28,0l.28-1.01c0-.1-.51-.07-.61-.08.22-.66.65-1.54.67-2.23.06-2.52-3.24-2.74-4.43-.99ZM9.18,25.29s-.03.07-.07.08c-.13.05-1.12.02-1.31-.02-.84-.14-.73-.83-.6-1.48.15-.77.38-1.55,1.24-1.71.36-.07.81.02,1.06.31.56.64-.23,2.07-.32,2.82Z"/>
  <path class="st1" d="M19.57,24.76c.38-1.42.31-2.76-1.52-2.68-1.37.06-2.02.84-2.32,2.1-.26,1.08-.4,2.12.99,2.27.76.08,1.59-.04,2.36,0,.05,0,.06-.04.07-.08.06-.15.16-.66.19-.84,0-.06-.04-.11-.06-.11h-1.95s-.3-.06-.34-.07c-.25-.08-.21-.38-.2-.59h2.78ZM18.23,23.2c.27.08.45.42.23.63h-1.46c.14-.55.68-.79,1.23-.63Z"/>
</svg>