<svg xmlns="http://www.w3.org/2000/svg" version="1.1" viewBox="0 0 30 30">
  <defs>
    <style>
      .st0 {fill: #d22425;}
      .st1 {fill: #0e68ab;}
      .st2 {fill: #0e68aa;}
      .st3 {fill: #1469ab;}
      .st4 {fill: #e17073;}
    </style>
  </defs>
  <path class="st0" d="M15,11.75c-.89-.81-2.52-2.17-2.33-3.5.25-1.7,3.94-2.79,4.21-5.11.04-.39-.02-.73-.06-1.11.98,1.16.26,2.61-.6,3.59-1.02,1.16-3.19,2.12-2.48,4.02.29.77.95,1.35,1.25,2.11Z"/>
  <path class="st0" d="M15.05,22.46l.92,3.14c.11.02.06-.05.09-.11.37-.95.57-2.02.73-3.03h.9c-.23,1.4-.66,2.76-1.24,4.06-.06.08-.92,0-1.1.03l-1.2-4.08h.9Z"/>
  <path class="st2" d="M11.21,17.13c.08.07,0,.09-.07.1-.42.05-.74.08-1.14.26-.92.41-.15.6.41.73,1.27.3,3.05.33,4.37.31,1.1-.01,4.67-.19,5.52-.71.21-.13.34-.3.23-.54.89.49-.63.99-1.05,1.12-2.72.82-7.39.78-10.17.21-.34-.07-1.18-.21-.79-.71s2.04-.92,2.69-.77Z"/>
  <path class="st0" d="M9.82,21.02v5.11c0,.65-.33,1.31-.88,1.66s-.5.2-.91-.21c.34-.25.76-.56.83-1.01.02-.12.06-.49.06-.59v-4.96h.9Z"/>
  <path class="st0" d="M18.84,5.72c-.74.55-2.79,1.63-2.79,2.67s1.5,1.61.86,2.85c-.24.46-.74.89-1.2,1.11.29-.36.51-.73.44-1.22-.06-.42-.5-.77-.71-1.13-1.43-2.36,1.55-3.81,3.41-4.28Z"/>
  <path class="st2" d="M12.56,15.83c.03.1-.11.14-.1.22.03.16.53.25.68.27,1.23.2,2.47.07,3.68-.15l.97.48c0,.05-.69.28-.79.31-1.27.36-3.3.49-4.54-.01-.93-.38-.84-.88.1-1.12Z"/>
  <path class="st1" d="M12.91,11.8c-.02.09-.1.08-.17.11-.39.13-.83.2-1.21.38-.12.06-.48.23-.36.4.09.13,1.38.25,1.61.26,1.15.05,2.54-.04,3.69-.15.74-.07,1.48-.24,2.22-.27-.52.38-1.06.5-1.68.61-1.69.29-5.02.48-6.64,0-1.3-.39.38-.91.89-1.06.54-.15,1.1-.24,1.66-.26Z"/>
  <path class="st1" d="M12.16,13.89c-.38.47.07.58.48.64,1.17.18,2.5.09,3.67-.05.27-.03.84-.2,1.06-.19.06,0,.63.4.72.49-1.5.4-3.1.59-4.66.5-.46-.03-1.77-.23-2.07-.57-.35-.41.47-.75.8-.82Z"/>
  <path class="st3" d="M10.86,19.37c-.01-.09.11-.05.17-.04,2.7.24,5.12.37,7.82-.12.94-.17,1.96-.41,2.73-.98-.16.68-1.03.96-1.63,1.13-1.71.48-3.56.49-5.32.46-1.27-.02-2.56-.02-3.76-.45Z"/>
  <path class="st1" d="M18.79,15.13c.79-.55,2.54-1.51,1.93-2.71-.29-.56-.91-.58-1.45-.47-.07.01-.1.09-.09-.04.75-.58,2.25-.23,2.39.8.18,1.35-1.71,2.2-2.79,2.41Z"/>
  <path class="st4" d="M21.72,22.31s.03.25.08.25l.17-.25v.4s-.05-.2-.05-.2l-.12.2-.1-.2-.07.2-.07-.3-.12.3c-.01-.09.02-.19,0-.27,0-.03-.2-.05-.1-.13.02-.01.38-.01.39,0Z"/>
  <path class="st0" d="M13.14,22.6c-.39-.23-1.11-.23-1.55-.18-.13.01-.84.21-.93.27-.08.06.05.52.08.53.92-.23,2.24-.57,2.01.89h-.82s-.45.1-.52.13c-.5.16-.95.55-1,1.1-.14,1.53,1.56,1.61,2.47.82.06.04.05.4.07.4h.7v-3.06c0-.3-.25-.73-.51-.88ZM12.76,25.62c-.54.59-1.79.5-1.47-.53.06-.18.49-.45.65-.45h.82v.97Z"/>
  <path class="st0" d="M20.34,22.42c-.37-.06-1.74,0-2.01.26-.1.1,0,.57.08.57.9-.36,2.23-.56,2.02.85h-.87c-.59,0-1.41.51-1.51,1.13-.25,1.55,1.54,1.74,2.45.91.13.08.03.31.12.38.1.07.51,0,.65.02v-3.16c0-.42-.53-.9-.93-.96ZM20.43,25.57c0,.12-.64.4-.78.42-.84.1-.99-.88-.49-1.18.04-.02.37-.16.39-.16h.87v.92Z"/>
</svg>