<svg xmlns="http://www.w3.org/2000/svg" version="1.1" viewBox="0 0 30 30">
  <defs>
    <style>
      .st0 {fill: #edcd71;}
      .st1 {fill: #040000;}
      .st2 {fill: #070404;}
      .st3 {fill: #c99e23;}
      .st4 {fill: #f1d173;}
      .st5 {fill: #141515;}
      .st6 {fill: #131313;}
      .st7 {fill: #0b0a0a;}
      .st8 {fill: #090808;}
      .st9 {fill: #c69c21;}
      .st10 {fill: #0c0b06;}
      .st11 {fill: #f6d575;}
      .st12 {fill: #0e0d0d;}
      .st13 {fill: #0e0e0e;}
      .st14 {fill: #101111;}
    </style>
  </defs>
  <path class="st1" d="M3.72,20.8c-.09-.02-.17-.14-.15-.28.22-1.39,2.73-3.97,3.62-5.14.07-.26-.92-1.78-1.08-2.29-.85-2.66.57-4.71,3.36-4.73.28,0,.6.17.8.15.07,0,.11-.43.7-.42s2.03.78,2.26,1.3c.13.3-1.11.46-1.31.46-.28,0-1.44-.21-1.61-.38-.25-.25.16-.61-.56-.7-1.26-.17-2.65.4-3.2,1.59-.74,1.59.15,3.25,1.01,4.56,2.27-2.07,4.97-3.77,7.99-4.52-.24-1.88-.52-3.75.15-5.59.72.23,1.48.79,1.97,1.37.19.22.18.66.55.68,1.27-.23,2.68-.21,3.95-.03.61-.95,1.35-1.6,2.4-2.03.62,2.44.51,5.08-.55,7.38.16.12.96-.25.82.27-.14.11-1.16-.25-1.09.41.05.04,1.6-.11,1.09.27-1.55-.25-1.35.27-2.12,1.1-.54.59-1.22,1.12-1.71,1.7l3.15,3.42c1.08.28,2.6.37,2.45,1.85h-2.53c-.13,0-1.81-1.03-2.21-1.21-3.24-1.47-6.58-2.87-10.16-3.16-.16.16.31,1.57.55,1.72s1.62-.34,1.64.88h-1.98c-.14,0-1.9-1.41-2.18-1.64-.93-.75-.91-1.27-2.25-.33-1.13.79-1.54,1.99-1.38,3.34-.66-.11-1.8.15-2.39,0Z"/>
  <path class="st6" d="M10.62,21.76c.77-.12.52.18.55.82,1.32-.51,1.29.8,1.23,1.78-.94.24-.43-.83-.55-1.5-1.12-.3-.51,1.34-.68,1.5-.02.02-.55.03-.55,0v-2.6Z"/>
  <path class="st2" d="M22.37,24.36c-.16.22-.25,0-.27-.2-.03-.28.13-1.32-.34-1.31-.79.01-.4.97-.48,1.51h-.41c-.11-.48.3-1.58-.35-1.58s-.43.96-.47,1.38c-.02.2-.11.42-.27.2v-1.78c.36.21.63-.13.89-.13.49,0,.23.13.99.02,1.05-.16.66,1.22.72,1.89Z"/>
  <path class="st7" d="M16.22,22.31s-.53.03-.68,0l.08-.41h1.7s0,.41,0,.41c-.11.03-.68-.03-.68,0v2.05h-.41c-.05-.31.07-1.98,0-2.05Z"/>
  <path class="st14" d="M27.03,22.44c.07.07.49-.04.54,0,.01.01.01.39,0,.41-.15.15-.71-.44-.55.76.1.74.55.19.55.74-.23,0-.47.04-.68-.07-.4-.19-.52-1.97.07-2.25.16.03,0,.33.07.4Z"/>
  <path class="st13" d="M10.35,22.58c.35.36-.69.24-.83.33-.2.14-.2.97,0,1.11.31.23.86-.34.83.12-1.45,1.05-1.9-1.48-.72-1.69.15-.03.65.05.72.12Z"/>
  <path class="st13" d="M24.29,22.58c.35.36-.69.24-.83.33-.2.14-.2.97,0,1.11.31.23.86-.34.83.12-1.45,1.05-1.9-1.48-.72-1.69.15-.03.65.05.72.12Z"/>
  <path class="st3" d="M24.22,20.8c-.55-.11-2.52-1.34-3.26-1.66-2.98-1.33-6.1-2.45-9.39-2.71l.27-2.05c-.35-.06-.24.06-.33.27-.23.57-.1,1.14-.23,1.55-.15.48-.98.1-1.29.1-.36,0-.65.22-1.05.1-.11-.03-.94-.83-.99-.93-.1-.2-.03-.2.07-.34.13-.2,1.46-1.4,1.6-1.42.2-.04.59.52.87.54.2-.26-.65-1.05.46-1.4.58-.18.89.41,1.46.45.17-.17-.83-1.02-.19-1.22.53-.16,1.92,1.28,2.1,1.08l-.55-1.77,1.97-.56.49,1.38c-.13.12-.97-.25-.82.27.54.06,1.1-.26,1.23.41-.06.04-1.75-.12-1.23.27.35.07,1.22-.12,1.47.03.05.03.48.76.64.93.46.49,1.96,1.98,2.53,2.13.37.1.65-.44.9.06.15.3-.4.67-.49.95.68-.16,1-.53,1.5.21l-.82.75c.4.06.89-.38,1.27-.26.15.05,1.28,1.56,1.66,1.77.58.33,1.84.03,2.13,1.09-.59-.08-1.44.11-1.98,0Z"/>
  <path class="st11" d="M23.74,10.14c-.02.26.5.21.55.27.09.12-.44.95-.82.82-.04.27.34.07.41.14.43.4-.86,1.16-1.37.82-.11.51.67.19.96.27-.16.42-.56.45-.96.41-.11.49.35.15.55.34-.51.58-.98,1.21-1.58,1.71-1.21,1.01-1.33,1.01-2.59,0-.2-.16-1.68-1.66-1.58-1.77l.41-.27c-.49.03-.69.1-.82-.41.16-.12.96.25.82-.27-.73.05-1.07.07-1.3-.68-.16-.53.05-.34.12-.42.37-.45-.64-.07-.46-.87.05-.23.69-.07.69-.35-1.05-.21-1.05-.77-1.1-1.7-.05-.8.02-1.61.14-2.4.44.43.63,1.55,1.35,1.71.51.11,2.04-.58,2.48-.28.11.08.52,1.34.61,1.3.32-.18.35-1.25.5-1.35.41-.26,1.96.38,2.48.23.6-.17.73-1.4,1.19-1.75-.08.7.24,3.94-.13,4.31-.11.11-.38.17-.55.2Z"/>
  <path class="st9" d="M8.43,16.57c-1.61.47-2.91,2.1-2.73,3.83h-1.64c-.11-.1,1.11-1.88,1.25-2.09.25-.35,2.05-2.69,2.23-2.69l.89.95Z"/>
  <path class="st5" d="M6.11,22.5c-.45-.14-.51.14-.76.22-.08.03,0-.38-.27-.27-.05.07-.19.15-.21.2-.11.41,0,1.96,0,2.53,0,.03.45-.02.55,0-.14-1.28.19-.59.82-.89.56-.26.59-1.57-.13-1.79ZM5.65,24.08c-.6-.18-.4-1.72.44-1.2.29.17.21,1.39-.44,1.2Z"/>
  <path class="st8" d="M3.78,21.9c-.61-.42-1.1,2.07-1.36,2.46.88-.04.23-.85,1.44-.69.51.06.05.89.75.69-.1-.33-.71-2.39-.82-2.46ZM3.24,23.4s.17-1.07.41-1.09l.27.89-.68.2Z"/>
  <path class="st6" d="M7.95,22.44c-.45-.06-1.16.32-.54.41,1.76.26-.15.35-.36.6-.76.92.96.94,1.52.9-.01-.6.21-1.81-.62-1.92ZM8.09,23.81c-.33.66-1.39-.06-.14-.41.17.15.26.17.14.41Z"/>
  <path class="st6" d="M25.58,22.44c-.45-.06-1.16.32-.54.41,1.76.26-.15.35-.36.6-.76.92.96.94,1.52.9-.01-.6.21-1.81-.62-1.92ZM25.73,23.81c-.33.66-1.39-.06-.14-.41.17.15.26.17.14.41Z"/>
  <path class="st13" d="M13.22,23.54h1.23c.01-1.72-2.07-1.24-1.61.31.18.61.97.54,1.48.51v-.41c-.47.23-1.21.29-1.09-.41ZM14.04,23.26l-.82-.2c.32-.5.74-.38.82.2Z"/>
  <path class="st12" d="M17.95,22.6c-1.08.7.2,2.5,1.12,1.59.59-.59-.04-2.29-1.12-1.59ZM18.22,24.07c-.33-.11-.33-1.1,0-1.21.93-.31.93,1.52,0,1.21Z"/>
  <path class="st10" d="M19.37,10.14h1.98c.07,0,.54-.87,1.02-1.03.23-.08.96-.24.83.21-.66-.05-1.18.18-1.5.75.26.25,1.2-.23,1.09.34h-1.23c-.2.36.3,1.15.26,1.29-.05.21-1.16.71-1.35.97,0,.22,1.05.39.75.75-.35,0-.68-.49-.98-.52-.35-.03-.96.79-1.14.31-.02-.05.92-.46.82-.61-.29-.1-1.2-.61-1.31-.82-.17-.33.44-.97.35-1.37-.11-.11-1.22.22-1.09-.2.06-.19,1.12.03,1.22-.08.17-.16.29-1.67-.46-1.63-.63.03-.62.55-.77.68-.39.36-.34-.6.42-.88,1.29-.47,1.28.96,1.09,1.84Z"/>
  <path class="st4" d="M18.96,11.51l.36-1.1c.3.07,1.9-.06,1.97,0,.04.04-.01.88.14,1.09h-2.46Z"/>
  <path class="st0" d="M21.14,11.78c-.6.78-1.34.85-1.91,0h1.91Z"/>
</svg>