<svg xmlns="http://www.w3.org/2000/svg" version="1.1" viewBox="0 0 30 30">
  <defs>
    <style>
      .st0 {fill: #040000;}
      .st1 {fill: #b9d8a7;}
      .st2 {fill: #2a6d36;}
      .st3 {fill: #919b8e;}
      .st4 {fill: #b9d2a7;}
      .st5 {fill: #b9cfab;}
      .st6 {fill: #f7f7f7;}
      .st7 {fill: #7abe4a;}
      .st8 {fill: #dddcdc;}
      .st9 {fill: #67aa47;}
      .st10 {fill: #459337;}
    </style>
  </defs>
  <path class="st3" d="M15,24.58c-5.1,0-9.23-4.29-9.23-9.58h-1.77c0,6.31,4.92,11.42,11,11.42s11-5.11,11-11.42h-1.77c0,5.29-4.13,9.58-9.23,9.58Z"/>
  <path class="st2" d="M9.09,7.64c-.36-.5-.6-1.09-.69-1.78-2.68,2.08-4.41,5.4-4.41,9.14h1.77c0-2.96,1.29-5.61,3.32-7.36Z"/>
  <path class="st2" d="M24.23,15h1.77c0-2.17-.58-4.21-1.6-5.93-.57.18-1.18.34-1.81.48,1.03,1.55,1.64,3.43,1.64,5.46Z"/>
  <path class="st9" d="M15,3.58c-2.47,0-4.75.85-6.59,2.28.09.69.32,1.28.69,1.78,1.6-1.39,3.66-2.22,5.91-2.22,3.14,0,5.92,1.63,7.59,4.13.63-.14,1.24-.3,1.81-.48-1.93-3.29-5.42-5.49-9.4-5.49Z"/>
  <path class="st7" d="M18.98,10.02c1.26-.07,2.48-.23,3.61-.47-1.67-2.49-4.44-4.13-7.59-4.13-2.25,0-4.3.83-5.91,2.22,1.54,2.11,5.38,2.63,9.89,2.38Z"/>
  <path class="st10" d="M18.98,10.02c-4.51.25-8.34-.27-9.89-2.38-2.03,1.76-3.32,4.4-3.32,7.36h18.46c0-2.03-.61-3.91-1.64-5.46-1.13.24-2.35.4-3.61.47Z"/>
  <path class="st8" d="M15,24.58c5.1,0,9.23-4.29,9.23-9.58H5.77c0,5.29,4.13,9.58,9.23,9.58Z"/>
  <path class="st6" d="M17.39,20.76c.85.04,2.59.24,4.42-1.43.64-.8.87-2.19.82-2.82s-.3-1.51-.3-1.51c-.47,0-1.43.03-1.7.13l-.05.29c.91,1.51.14,3.06-1.53,3.37-.86.16-2.99,0-2.38-1.29,1.15,1.08,4.23.33,2.86-1.43-.18-.23-2.08-1.28-2.2-1.17-.04.03-.07.08-.09.12-.23-.37-1.97-.26-2.07-.09.02,1.33,0,2.64-.05,3.95l-.16-.19c-.45.03-.89.03-1.33.02l.21-.16c.07-.27.04-2.49,0-2.89,0-.06-.13-.09-.21-.1l-.15-.22c-.3-.03-2.28-.06-2.49,0-.07.02-.1.14-.12.22l-.21.16c-.08.54-.06,2.49,0,3.06,0,.06.13.09.21.1-.28-.26-1.02-.16-1.33-.09.11-1.26.06-2.53-.16-3.78-.19-.27-1.21-.22-1.6,0l-.13.83s-.05,3.86.44,4.18,2.67.63,3.52.19c0,0,.5-.33.56-1s.83-.51.83.26c0,0-.11,1.25,1.47,1.25s.73-.81,1.39-.81.46.81,1.55.86Z"/>
  <path class="st1" d="M22.13,11.38s-.68-1.32-2.89-1.55-2.35.94-3,.88-.38-.53-1.24-.81c-.48-.16-.99-.17-1.38-.06-.19.03-.61.06-.74.11-.26.09-.43.72-.69.88-.11,0-.26-.61-.4-.74-.51-.46-2.68-.41-3.27-.03-.14.09-.21.13-.3.3-.58,1.21.03,3.26-.34,4.56v.11h.32c.39-.03.78.02,1.17,0,.31-1.19.24-2.44.16-3.67.32.07,1.05.18,1.33-.09l-.21.16c-.06.75-.06,1.97,0,2.72,0,.06.13.09.21.1l.15.22c.67.06,1.82.06,2.49,0,.06,0,.1-.13.12-.22.09-.03.17-.07.21-.16.06-.11.02-2.25,0-2.53,0-.07-.13-.11-.21-.13.44-.01.88,0,1.33.02l.16-.19c.07.81.14,1.63.2,2.45.25.55.63.52,1.13-.08-.16-.52-.1-.95.16-1.27l.28-.03c.46-1.21,3.92-1.65,3.66.1l.2.15c.04.38,1.06.49,1.28.22s.41-.67.11-1.44Z"/>
  <path class="st0" d="M9.37,15.02c0-1.25,0-2.5,0-3.75.53-.13.95-.11,1.48,0v2.98h2.77v-2.82c0-.33,1.24-.26,1.49-.17.14,1.22.21,2.45.21,3.7l-.17.11c.03,1.29.02,2.56-.04,3.81-.25.1-1.49.17-1.49-.17v-3.15h-2.77v3.31c-.53.1-.95.13-1.48,0,0-1.28,0-2.58,0-3.86Z"/>
  <path class="st0" d="M16.6,12.37c.15-.17.2-.39.32-.5.81-.78,1.94-.95,2.99-.67.85.23.91.47.85,1.39.28.19.05.4-.25.42-3.05-1.43-2.92.75-.31,1.52.35.12.5.32.46.6.25.28.5.89.53,1.27.18,2.23-2.04,3.03-3.81,2.52-1.06-.31-1.05-.57-.98-1.69.51,0,.92.44,1.46.53.61.1,1.61.11,1.73-.7.09-.64-.12-.83-.6-1.13-.18-.11-1.64-.88-1.73-.91-.59-.09-1.17-1.05-.8-1.51-.16-.48-.1-.86.17-1.14Z"/>
  <path class="st4" d="M20.75,12.59c.09-.03,1.02.35,1.28.22-.01.11.01.23,0,.33-.04.29-.22.61-.2.8.02.12.42.93.51,1.08-.54,0-1.23-.09-1.7.11-.6-.67-2.7-1.06-2.67-2.04.02-.74.82-.89,1.4-.78.36.07.92.46,1.13.49.18.02.23-.2.24-.21Z"/>
  <path class="st5" d="M15.11,11.26c.21.08.07.77.11,1.04.02.16.17.28.2.45.07.39-.08.76.23,1.14.27.07.35-.2.5-.31.06-.04.21,0,.23-.01.08-.09-.37-.76-.05-1.1.1-.1.25-.09.27-.11-.25,1.08-.18,1.9.64,2.65-.54-.12-1.44.09-2.02,0-.13.13.07,3.16,0,3.71-.01.11,0,.12-.11.16v-7.62Z"/>
</svg>