<svg xmlns="http://www.w3.org/2000/svg" version="1.1" viewBox="0 0 30 30">
  <defs>
    <style>
      .st0 {fill: #ec8f26;}
      .st1 {fill: #332862;}
      .st2 {fill: #fff;}
      .st3 {fill: #2e2556;}
      .st4 {fill: #3a2c6e;}
      .st5 {fill: #2a2452;}
      .st6 {fill: #43347d;}
    </style>
  </defs>
  <path class="st0" d="M4.03,14.4c.03-.74.15-1.45.35-2.17,1.24-4.48,5.51-7.67,10.18-7.5l-1,.23c-7.39,1.95-10.4,10.85-5.34,16.74,1.63,1.9,3.93,3.11,6.38,3.57h-1.07c-3.79-.12-7.3-2.74-8.79-6.21-.47-1.09-.78-2.27-.71-3.46-.04-.39-.04-.81,0-1.2Z"/>
  <path class="st5" d="M25.56,12.17H6.7c.94-3.41,4.07-6.25,7.56-6.85,2.61-.45,5.33.03,7.49,1.58,1.75,1.25,3.26,3.17,3.81,5.28Z"/>
  <path class="st5" d="M6.74,17.97c-.04-.07-.04-.11.05-.11h3.31s.09.05.09.05c.43.81.97,1.55,1.63,2.21h.11c2.39,2.03,6.07,2.01,8.49-.06l.21-.07.13-.24c.54-.52,1-1.13,1.31-1.82l.11-.05h3.39c-1.02,3.4-4.15,6.25-7.68,6.82-2.59.42-5.18-.08-7.33-1.59-1.67-1.17-3.29-3.15-3.81-5.15Z"/>
  <path class="st3" d="M25.95,14.44H6.31c0-.4.07-.8.13-1.2h19.31c.05,0,.08.01.1.07.1.29.07.82.09,1.13Z"/>
  <path class="st4" d="M25.56,17.88h-3.39c-.35.81-.9,1.53-1.55,2.11-.08-.03-.1-.1-.06-.21-2.96,0-5.92,0-8.89,0,.18.16.22.28.13.34-.74-.57-1.33-1.38-1.73-2.23-1.06.01-2.13-.04-3.2,0-.08,0-.17-.04-.15.09,0-.02-.1-.09-.02-.13l18.84.04Z"/>
  <path class="st1" d="M22.81,15.56l.08.13c-.04.31-.08.61-.12.9h2.93c.03-.09.08-.14.16-.13l-.02.26-19.4-.04.04-.09h3.03s-.13-.96-.13-.96l.08-.07c4.45,0,8.91,0,13.36,0Z"/>
  <path class="st5" d="M9.45,15.56l.17,1.12h-3.18c-.05-.07-.17-1.08-.13-1.12,1.05,0,2.09,0,3.14,0Z"/>
  <path class="st5" d="M22.81,15.56c1.04,0,2.09,0,3.14,0,0,.3-.02.62-.09.9-.01.06-.08.12-.04.21h-3.18c.08-.37.17-.74.17-1.12Z"/>
  <path class="st6" d="M11.81,20.12s0-.06-.02-.08c-.08-.1-.27-.19-.17-.35h9.04s-.04.3-.04.3c-2.21,1.94-5.27,2.29-7.85.82-.29-.16-.75-.45-.96-.69Z"/>
  <path class="st2" d="M25.59,12.17H6.72c-.11.35-.19.71-.26,1.08h19.38c-.07-.37-.15-.73-.26-1.08Z"/>
  <path class="st2" d="M6.45,16.68c.07.4.16.78.27,1.16l18.85.03c.11-.38.21-.76.28-1.16l-19.4-.03Z"/>
  <path class="st2" d="M25.98,15.56c.01-.19.02-.37.02-.56s0-.37-.02-.55H6.32c-.01.18-.02.37-.02.55s0,.38.02.56c6.55,0,13.11,0,19.66,0Z"/>
</svg>