<svg xmlns="http://www.w3.org/2000/svg" version="1.1" viewBox="0 0 30 30">
  <defs>
    <style>
      .st0 {fill: #040000;}
      .st1 {fill: #fff;}
      .st2 {fill: #e7b92d;}
      .st3 {fill: #eaeaea;}
      .st4 {fill: #de9f2f;}
    </style>
  </defs>
  <path class="st4" d="M24.02,7.27c0,.18.01.37,0,.55,0,.15-.1.41-.11.58l-1.55,17.3-7.37,2.03-7.37-2.02-1.65-18.4,18.05-.03Z"/>
  <path class="st0" d="M18.43,2.28v1.26h-1.32c.09.22,1.32.98,1.32,1.07v1.12h-3.24v-1.07s.08-.08.08-.08h1.23c-.09-.21-1.32-.98-1.32-1.07v-1.23h3.24Z"/>
  <polygon class="st0" points="14.7 2.28 14.7 5.73 11.52 5.73 11.52 4.47 13.33 4.47 13.33 2.28 14.7 2.28"/>
  <path class="st2" d="M14.97,11v-2.25h7.41l-1.4,15.75-6.01,1.64v-2.3c-.07-.05-.03-.06.11-.05v-.12s4.42-1.17,4.42-1.17c.39-3.75.72-7.5,1-11.26l.11-.07.02-.08c-1.89-.05-3.78-.08-5.67-.08Z"/>
  <path class="st2" d="M14.97,13.25c.82-.17,1.75-.14,2.59-.1.38-.05.63.01.75.18l-.73,7.44s-.04.06-.07.09c-.11.11-2.02.59-2.33.66l-.11-.09c-.06.03-.09.03-.11,0v-8.12s-5.49-.05-5.49-.05c1.82-.16,3.66-.16,5.49,0Z"/>
  <path class="st3" d="M14.97,23.84l-4.66-1.27-.28-3.62h2.25l.19,1.81,2.5.65h.11c-.04.76-.03,1.7,0,2.36l-.11.05Z"/>
  <path class="st3" d="M14.97,11c1.9,0,3.8,0,5.7,0,.04.08-.05.15-.05.16-1.84,0-3.69,0-5.54-.01v2.03s-.11.06-.11.06c-1.83,0-3.66,0-5.49,0l-.16-2.25c1.88,0,3.77,0,5.65,0Z"/>
  <path class="st1" d="M14.97,13.25v-2.19c1.82.05,3.64-.06,5.46,0,.11,0,.22-.06.19.11-.02.15.02.31,0,.47l-.99,10.94-4.55,1.21c-.17.03-.11-.08-.11-.19-.02-.6-.05-1.4,0-1.98,0-.11,0-.13.11-.19l2.32-.61.09-.08.72-7.45c-1.08-.05-2.16-.03-3.24-.03Z"/>
</svg>