<svg xmlns="http://www.w3.org/2000/svg" version="1.1" viewBox="0 0 30 30">
  <defs>
    <style>
      .st0 {fill: #fafafb;}
      .st1 {fill: #040000;}
      .st2 {fill: #abaecf;}
      .st3 {fill: #636699;}
      .st4 {fill: #474b83;}
      .st5 {fill: #fefefe;}
      .st6 {fill: #979bbf;}
      .st7 {fill: #64679a;}
      .st8 {fill: #7377aa;}
      .st9 {fill: #9093ba;}
      .st10 {fill: #888bb4;}
      .st11 {fill: #55598e;}
      .st12 {fill: #53578c;}
    </style>
  </defs>
  <path class="st6" d="M3.03,12.94l.09.24c-.34.63-.52,1.34-.51,2.05l-.19.17c-.1.14-.24.21-.41.2h-.1v-1.23c.19-.37.24-.79.42-1.17.1-.21.24-.28.29-.37.19-.23.38-.22.41.1Z"/>
  <path class="st8" d="M16.79,8.65c.25.07.4.01.43-.16l2.3.36c.14-.06.28-.13.43-.21.79.17,1.39.36,2.14.61.43.43.98.76,1.66.99l.08.24c.32-.22,1.33.33,1.32.72.13-.02.27-.04.36.04,5.12,4.03.44,8-3.97,9.4l-.27-.13c-.56.51-1.72.73-2.45.51l-.36.28c-1.16.08-2.3.27-3.41.54-1.64,0-3.18-.09-4.79-.41-.11-.19-.27-.32-.47-.39-2.4-.7-5.13-1.58-6.74-3.68-.37-.48-1.02-1.46-.64-1.97-.08-.76.2-1.82.61-2.46.01-.76,1.02-1.49,1.64-1.92,2.28-1.58,5.43-2.21,8.15-2.49.69-.07,3.21-.28,3.72-.1.11.04.19.12.25.22Z"/>
  <path class="st2" d="M17.2,8.24c.52.27.06.53-.41.41-3.97-.25-11.38.6-13.76,4.3l-.41-.1c2.6-4.26,10.1-4.97,14.57-4.6Z"/>
  <path class="st4" d="M21.07,21.03c-.24-.14-.17-.31.2-.51,4.42-1.31,9.32-5.36,3.87-9.31-.28-.25-.13-.5.2-.31,6.15,4.36.7,8.74-4.28,10.13Z"/>
  <path class="st10" d="M2.42,15.4c.24,2.29,3.12,3.98,5.04,4.71.6.23,2.41.63,2.75.93.19.17.13.18.06.39-3.08-.61-7.6-2.35-8.26-5.83-.06-.29.18-.21.41-.2Z"/>
  <path class="st3" d="M18.83,21.03c.24.12-.02.49-.18.34l.08.17c-1.34.21-2.3.3-3.67.31.69-.7,1.81-.48,2.7-.62.36-.05.72-.15,1.07-.2Z"/>
  <path class="st9" d="M19.95,8.65c-.01.21-.14.39-.36.41-.36.03-1.45-.26-1.93-.31-.28-.03-.66-.09-.87-.1h.41s0-.41,0-.41c1,.08,1.78.2,2.75.41Z"/>
  <path class="st11" d="M21.28,20.52l-.2.51c-.87.24-1.44.37-2.34.51-.46.03-.05-.28.1-.51.83-.14,1.64-.27,2.45-.51Z"/>
  <path class="st7" d="M23.82,9.98c.23.18.33.4,0,.51-.39-.21-1.46-.58-1.68-.82-.07-.08-.26-.35-.06-.4.67.23,1.1.41,1.73.72Z"/>
  <path class="st12" d="M25.35,10.9c-.15.04-.2.16-.2.31-.34-.24-.94-.51-1.32-.72v-.51c.66.32.93.5,1.53.92Z"/>
  <path class="st5" d="M15.47,9.87l-.2,1.74c1.25.06,2.84-.13,3.31,1.33.13-.29.08-1.14.38-1.26.47-.19,3.29-.08,3.88.06,2.41.55,2.03,3.7.35,4.91-1.01.73-2.25.66-3.44.69l-.31,1.74h-1.89c-.38,0,.28-1.68.15-1.84-.34.15-1.82.23-1.92-.17-.09-.34.54-2.48.59-3.07.02-.19.05-.38-.03-.56-.14-.21-1.13-.04-1.42-.1-.25.51-.6,3.73-.84,3.9s-1.65.16-1.88-.06c-.19-.18.07-.85.09-1.14,0-.11.08-.27-.09-.24-.78,1.57-2.57,1.46-4.08,1.58-.19.14-.19,1.7-.45,1.7h-1.89l1.35-7.34c.16-.19,2.38-.16,2.78-.13,1.19.07,2.54.29,2.85,1.64.42-1.08.37-2.34.82-3.38h1.89Z"/>
  <path class="st1" d="M17.71,18.88l1.38-6.96c2.06.13,5.51-.73,5.13,2.5-.28,2.34-2.71,2.83-4.67,2.63l-.31,1.84h-1.53Z"/>
  <path class="st1" d="M6.09,18.88c.32-2.31.8-4.64,1.32-6.91,1.41,0,4.81-.58,5.09,1.45.4,2.94-2.21,3.94-4.68,3.62l-.31,1.84h-1.43Z"/>
  <path class="st1" d="M15.16,10.08l-.31,1.84h1.89c.34,0,1.19.34,1.36.68.47.92-.48,3.35-.5,4.44h-1.53c.08-1.01.52-2.15.6-3.13.1-1.24-1.14-.76-1.96-.86l-.82,3.9c-.17.22-1.16.05-1.48.1l1.32-6.96h1.43Z"/>
  <path class="st0" d="M19.75,15.91l.6-2.82c.49-.06,1.76-.15,2.12.19.51.48.08,1.94-.45,2.31-.08.05-.66.32-.7.32h-1.58Z"/>
  <path class="st0" d="M8.13,15.91l.57-2.87c.57.04,2.01-.18,2.24.51.27.84-.35,2.36-1.33,2.36h-1.48Z"/>
  <path class="st8" d="M22.27,13.48c.33.34.02,1.51-.33,1.82-.45.4-1.23.29-1.79.3l.42-2.24c.37.03,1.46-.13,1.7.12Z"/>
  <path class="st8" d="M8.43,15.6l.41-2.25c1.07.07,2.02-.43,1.82,1.06-.17,1.22-1.22,1.26-2.23,1.18Z"/>
</svg>