<svg xmlns="http://www.w3.org/2000/svg" version="1.1" viewBox="0 0 30 30">
  <defs>
    <style>
      .st0 { fill: #096bad; }
      .st1 { fill: #040000; }
      .st2 { fill: #329dd0; }
      .st3 { fill: #fff; }
      .st4 { fill: #eaeaea; }
    </style>
  </defs>
  <polygon class="st0" points="24.02 7.27 22.37 25.69 15 27.72 7.63 25.7 5.98 7.27 24.02 7.27"/>
  <path class="st1" d="M16.62,2.28v1.26h-1.37l1.37,1.12v1.07h-3.24v-1.15h1.32c-.11-.19-1.32-.98-1.32-1.07v-1.23h3.24Z"/>
  <path class="st1" d="M20.29,2.28v1.26h-1.32c.11.2,1.32.98,1.32,1.07v1.12h-3.15s-.08-.08-.08-.08v-.99s.08-.08.08-.08h1.29l-1.3-1s-.07-.1-.07-.12v-1.18h3.24Z"/>
  <polygon class="st1" points="12.89 2.28 12.89 3.54 11.08 3.54 11.08 4.58 12.89 4.58 12.89 5.73 9.71 5.73 9.71 2.28 12.89 2.28"/>
  <path class="st2" d="M14.97,11.05c.06-.67-.08-1.46,0-2.11,0-.06.03-.19.09-.19h7.32l-1.4,15.75-6.01,1.64v-2.3c-.06-.14,0-.17.11-.05l.04-.12,4.39-1.17c.35-3.77.69-7.54,1-11.33l.12-.06c-1.84-.03-3.73-.05-5.65-.05Z"/>
  <path class="st4" d="M14.97,23.84l-4.71-1.32-.34-3.61h2.36l.17,1.86c.81.14,1.6.47,2.41.61.13-.03.19-.01.16.05.04,0,.11,0,.11.03.05.6.07,1.4.05,1.99.04.18,0,.29-.1.33l-.11.05Z"/>
  <path class="st4" d="M14.97,11.05c1.78,0,3.57-.02,5.35,0,.09,0,.24-.04.3.06l-.04.11h-5.41c-.04.66-.06,1.33-.04,2.02l-.11.06s-.03.05-.05,0c-1.81,0-3.62,0-5.43,0l-.16-2.25c1.86,0,3.73,0,5.6,0Z"/>
  <path class="st4" d="M15.03,15.61s.11.01.11.04c.03.66.03,1.49,0,2.15l-.11.06c-1.7.02-3.4.02-5.1,0l-.16-2.25c1.76-.02,3.51-.02,5.27,0Z"/>
  <path class="st2" d="M15.03,17.86c.92-.14,1.87-.15,2.79-.08l.07.13-.31,2.9c-.8.27-1.62.51-2.46.71l-.09-.09c-.07.03-.14-.05-.16-.05.17.03.11-.08.11-.19.04-1.09-.03-2.18,0-3.27l-5.05-.05c1.7,0,3.4,0,5.1,0Z"/>
  <path class="st2" d="M15.03,13.3c.07-.03.14-.05.21-.07s.14-.04.21-.04c.85-.01,1.7,0,2.55.02.19-.03.26.03.31.17s-.26,1.99-.33,2.28c-.43.11-2.35.14-2.76.02-.07-.02-.13-.04-.19-.07-1.75,0-3.51,0-5.27,0l5.21-.05v-2.25s.04,0,.05,0Z"/>
  <path class="st3" d="M20.62,11.11l-.99,11.46-4.55,1.21-.05-2.36,2.47-.66c.04-.94.21-1.88.28-2.82,0-.11,0-.07-.08-.08-.89,0-1.78,0-2.66,0v-2.25c.97,0,1.94.02,2.91-.02l.27-2.25c-1.06-.05-2.12-.03-3.18-.03v-2.19s5.6,0,5.6,0Z"/>
</svg>