<svg xmlns="http://www.w3.org/2000/svg" version="1.1" viewBox="0 0 30 30">
  <defs>
    <style>
      .st0 { fill: #040000; }
      .st1 { fill: #fff; }
      .st2 { fill: #d74d28; }
      .st3 { fill: #e4642d; }
      .st4 { fill: #eaeaea; }
    </style>
  </defs>
  <polygon class="st2" points="5.97 7.27 23.99 7.27 24.03 7.52 22.38 25.67 15 27.72 7.83 25.74 7.63 25.61 6.08 8.07 5.97 7.49 5.97 7.27"/>
  <path class="st0" d="M16.37,2.28c.17.11.65,1.15.71,1.15.09,0,.09-.04.13-.09.23-.3.43-.73.61-1.06h1.26v3.37s-.08.08-.08.08h-1.04s-.08-.08-.08-.08v-1.51c-.17.1-.67,1.08-.74,1.1-.1.03-.07-.04-.1-.07-.25-.33-.4-.73-.7-1.03v1.51s-.08.08-.08.08h-1.07v-3.46h1.18Z"/>
  <polygon class="st0" points="8.83 2.28 8.83 3.43 9.87 3.43 9.87 2.28 11.02 2.28 11.02 5.73 9.87 5.73 9.87 4.58 8.83 4.58 8.83 5.73 7.68 5.73 7.68 2.28 8.83 2.28"/>
  <path class="st0" d="M14.7,2.28v1.15h-.99v2.22s-.08.08-.08.08h-1.04s-.08-.08-.08-.08v-2.22h-.99v-1.15h3.18Z"/>
  <polygon class="st0" points="20.79 2.28 20.79 4.58 22.38 4.58 22.38 5.73 19.63 5.73 19.63 2.28 20.79 2.28"/>
  <path class="st3" d="M15.03,11v-2.25h7.35l-1.4,15.75-5.96,1.64v-2.3s0-.12,0-.12l4.47-1.23c.25-2.22.47-4.56.63-6.78-1.7.06-3.41.02-5.1-.1-.04,0-.11-.01-.11-.04-.01-.27-.06-2.11,0-2.2l.11-.06c1.77-.12,3.55-.16,5.33-.12l.21-2.05c-1.86.05-3.73.03-5.59-.09l.05-.05Z"/>
  <path class="st4" d="M14.97,11.05s.11,0,.11.04c.04.53.06,1.63,0,2.15l-.11.06c-1.02.12-2.06.15-3.09.07l.09.16c.07.67.11,1.33.14,1.99.96-.08,1.91-.05,2.85.08.04,0,.11,0,.11.04.04.53.06,1.63,0,2.15l-.11.06c-1.66.02-3.33.02-4.99,0l-.6-6.8c1.86,0,3.73,0,5.6,0Z"/>
  <path class="st1" d="M15.03,15.61c1.74,0,3.48,0,5.21,0v.36s-.61,6.6-.61,6.6l-4.6,1.27h-.05c-.17-.75-.19-1.62,0-2.36l.11-.14,2.35-.66.23-2.73c-.9.04-1.79.03-2.68-.09v-2.25s.03-.05.05,0Z"/>
  <path class="st4" d="M14.97,23.84l-4.58-1.31-.3-3.57h2.25l.19,1.81,2.44.66s.05.03,0,.05c-.01.79.01,1.57,0,2.36Z"/>
  <path class="st3" d="M14.97,17.86c.93,0,1.87,0,2.8,0l-.24,2.91-2.55.71s0-.04,0-.05c0,0,.06-.08.06-.19.02-1.11-.02-2.22,0-3.33l-5.05-.05c1.66,0,3.33,0,4.99,0Z"/>
  <path class="st1" d="M14.97,11.05c1.9,0,3.8,0,5.71,0l-.23,2.24c-1.81.01-3.62,0-5.43,0-.01.05-.03.05-.05,0v-2.25Z"/>
  <path class="st2" d="M14.97,13.3s.04,0,.05,0v2.3s-.04,0-.05,0c-.97,0-1.93,0-2.9,0-.13-.75-.14-1.54-.23-2.3,1.04,0,2.09,0,3.13,0Z"/>
</svg>