<svg xmlns="http://www.w3.org/2000/svg" version="1.1" viewBox="0 0 30 30">
  <defs>
    <style>
      .st0 {fill: #045e85;}
      .st1 {fill: #db8b2a;}
    </style>
  </defs>
  <path class="st0" d="M11.72,27.87h-3.05v-.58h2.94c.25,0,.28-.47.25-.65h-2.22c-.21,0-.98-.37-.98-.62v-2.07h.8v1.93c0,.08.18.25.25.25h2.14v-2.25c.2.04.79-.1.86.12-.04.91.09,1.93.01,2.83-.07.74-.4.81-1.02,1.05Z"/>
  <path class="st0" d="M26.12,19c.02-.11,0-.17-.07-.26-.09-.13-2.23-1.58-2.5-1.72-.66-.34-2.14-.6-2.56-1.07-.27-.31-.56-.97-.75-1.36-.96-1.93-1.59-4.02-2.89-5.76-1.22-1.64-3.85-3.96-5.9-4.35-.5-.09-1.29-.03-1.71-.18-.19-.07-.66-.52-.93-.67-.38-.23-1.45-.75-1.86-.76-.28,0-.54.25-.53.53.02.58,1.2,1.8,1.54,2.39.7,1.24.77,2.69,1.63,3.9.18.26.53.44.6.79.09.48-.33,1.21-.46,1.69-.31,1.15-.29,3.86.65,4.73.06.05.37.27.44.15.12-.21.14-1.06.2-1.4.15-.78.39-1.31.96-1.88.67,1.71,1.51,3.4,2.62,4.86.12.16.45.35.36.51-1.2-1-2.36-2.03-2.87-3.56-.19-.02-.12,0-.14.11-.21.89,0,2.36-1.34,2.14-.47-.08-1.03-.98-1.22-1.4-.83-1.92-.45-3.87.13-5.79-.41-.48-.74-.98-1-1.55-.4-.87-.6-2-.99-2.79-.5-1.01-2.1-2.13-1.67-3.39.5-1.46,2.6-.51,3.49.03.22.13.67.58.83.62.39.12.95.04,1.35.11,2.18.34,4.99,2.73,6.34,4.43,1.77,2.22,2.42,4.87,3.82,7.3.99.5,1.93.87,2.86,1.5s1.91,1.42,2.59,2.35c0,.27-2.93.55-3.27.8.33.67,1.09.91,1.67,1.32.66.47,1.56,1.31,2.04,1.96.05.07.27.41.22.47-.51-.39-1.02-.83-1.58-1.15-.71-.41-1.39-.63-2.08-1.12-.49-.35-1.43-1.15-1.49-1.78-.02-.23,1-.51,1.22-.57s.72-.18.91-.18h1.35Z"/>
  <path class="st0" d="M1.98,23.03c.1-.47,1.24-.54,1.53-.15l1.42,3.16,1.46-3.2c.33-.37,1.18-.27,1.49.11v3.67h-.8v-3.34l-1.49,3.2c-.43.37-1.1.31-1.41-.19-.39-.63-.76-1.76-1.09-2.47-.08-.17-.15-.43-.3-.53v3.34h-.8v-3.6Z"/>
  <path class="st1" d="M17.25,22.7l-.02.47-.09.1-2.82.08c-.72,1.97,2.34.45,2.82,1.61.08.19.07.95-.02,1.14-.07.16-.63.53-.78.53h-2.94v-.51h2.58c.1,0,.37-.27.4-.4.3-1.54-2.37-.26-2.89-1.32-.18-.37-.13-1.17.22-1.43.09-.07.59-.27.67-.27h2.87Z"/>
  <path class="st1" d="M23.43,22.7v3.16s.29.25.33.25h2.58v.51h-2.8c-.33,0-.98-.47-.98-.84v-3.09h.87Z"/>
  <path class="st0" d="M11,7.22c-.12-.54-.51-.87-.8-1.31.46-.06.72-.09,1.01.34.22.33.2.83-.2.97Z"/>
  <path class="st1" d="M22.17,27.12c-.11-.11-.72-.58-.63-.7.27-.05.41-.29.44-.54.06-.48.07-1.93,0-2.4-.13-.93-2.18-.82-2.88-.76-.62.05-1.26.2-1.34.91-.05.41-.06,2.01.03,2.36.26,1.02,2.1.51,2.84.65.24.05.48.5.77.61.2.07.64-.07.87.05.05-.17-.05-.13-.09-.17ZM21.24,25.72c-.03.15-.15.23-.25.33-.47-.53-.84-.67-1.56-.58l.65.65c-.31-.04-.77.06-1.05,0-.07-.01-.24-.16-.29-.22-.17-.26-.18-2.22,0-2.46.09-.12.22-.14.36-.15.3-.03,1.77-.04,1.96.08.09.06.15.16.17.26.06.24.06,1.84.01,2.09Z"/>
  <g>
    <path class="st1" d="M27.26,25.48c-.73.16-.58,1.27.19,1.22.85-.06.7-1.42-.19-1.22ZM27.45,26.61c-.68.03-.72-.96-.12-1.06.7-.11.78,1.02.12,1.06Z"/>
    <path class="st1" d="M27.57,26.34l-.29-.22-.15.29v-.65s.5,0,.5,0c.17.28-.21.28-.06.57Z"/>
    <path class="st1" d="M27.64,25.77h-.5s0,.65,0,.65l.15-.29.29.22c-.15-.29.23-.3.06-.57Z"/>
  </g>
</svg>