<svg xmlns="http://www.w3.org/2000/svg" version="1.1" viewBox="0 0 30 30">
  <defs>
    <style>
      .st0 {fill: #6cc7e6;}
    </style>
  </defs>
  <path class="st0" d="M21.9,24.75s-.08-.11-.13-.16c-.56-.47-1.42-.4-1.88.18-.32.42-.36,1.23-.16,1.71.4.96,1.62,1.17,2.26.33l.43.38c-.49.76-1.69.9-2.45.49-1.51-.82-1.36-3.46.36-3.93.7-.19,1.67-.02,2.08.64l-.39.37s-.08.02-.11-.01Z"/>
  <path class="st0" d="M24,22.68v1.04h.8s.04.04.04.04v.6h-.79l-.03.14c.05.79-.06,1.63,0,2.41.02.25.11.44.38.46.19.01.29-.09.46-.14.06.29.33.44-.05.62-.56.27-1.42.05-1.42-.69v-2.8h-.66c0-.08-.06-.53.06-.53h.56s.04-.04.04-.04v-1.1h.61Z"/>
  <path class="st0" d="M7.6,25.61s.15-.04.2-.05c1.78-.46,1.58-3.03-.14-3.25-.68-.09-1.54-.03-2.23,0-.16,0-.31,0-.47,0v5.36s.04.04.04.04h.6v-2.05h1.05c.05,0,.2.1.23.15l1.27,1.97s.08.08.1.08h.82l-1.47-2.24ZM5.6,25.01v-2.08c.47.02.94-.02,1.41,0,.61.03,1.16.2,1.25.91.07.57-.4,1.17-.99,1.17h-1.66Z"/>
  <path class="st0" d="M13.73,25.48c0-.14-.14-.53-.2-.66-.75-1.69-3.21-1.35-3.64.4-.33,1.33.37,2.66,1.81,2.74.1,0,.23,0,.33,0,.06,0,.12,0,.18,0,.19-.02.47-.1.65-.17.11-.05.59-.33.59-.45,0-.04-.27-.4-.31-.39-.02,0-.29.22-.37.26-1.04.57-2.16.04-2.28-1.15h3.24v-.57ZM13.06,25.62h-2.52c-.09-.58.52-1.24,1.08-1.29.7-.07,1.29.22,1.45.94.01.05.07.36,0,.36Z"/>
  <path class="st0" d="M15.56,23.81c-.2.06-.77.36-.86.54-.03.06.24.42.31.48.21-.19.44-.39.72-.47.42-.13,1.18-.12,1.4.34.15.31.09.69.13,1.02-.05.05-.36-.22-.44-.26-.69-.36-1.81-.23-2.17.53-.41.86.11,1.85,1.06,1.96.04,0,.09,0,.13,0,.09,0,.19,0,.28,0,.19-.01.38-.04.56-.11.15-.07.49-.35.6-.37.08-.01.02.2.04.25h.58v-2.93c0-1.07-1.57-1.22-2.33-.98ZM17.23,26.82c-.07.57-.91.71-1.36.61-.96-.23-.88-1.54.12-1.67.36-.05,1,.09,1.21.43.07.11.05.51.04.64Z"/>
  <g>
    <path class="st0" d="M25.62,11.45c0-.06,0-.12,0-.18-.11-1-1.12-1.82-1.93-2.29-.77-.44-1.64-.76-2.5-.98.13-.59.27-1.18.33-1.79.15-1.49-.03-4.03-2-4.17-.04,0-.08,0-.13,0-.11,0-.22,0-.33,0-.04,0-.08,0-.13,0-.92.06-2.01.74-2.73,1.28-.43.32-.82.68-1.21,1.05-.39-.35-.77-.72-1.19-1.04-.74-.57-1.82-1.24-2.77-1.29-.05,0-.1,0-.15,0-.09,0-.19,0-.28,0-.04,0-.08,0-.13,0-.98.07-1.63.88-1.87,1.77-.36,1.33-.07,2.82.22,4.14-.87.22-1.72.53-2.5.98-.88.51-1.87,1.31-1.93,2.41,0,.08,0,.17,0,.25.1,1.82,2.57,2.87,4.06,3.33.12.04.25.08.38.09-.15.67-.3,1.35-.35,2.04-.1,1.2.02,2.84,1.13,3.56,1.43.94,3.4-.28,4.54-1.19.3-.24.57-.51.86-.76.09,0,.34.29.42.37,1.27,1.13,3.9,3,5.43,1.29,1.14-1.28.71-3.71.35-5.23.96-.28,1.91-.62,2.76-1.16.79-.51,1.61-1.26,1.67-2.27,0-.07,0-.16,0-.23ZM18.13,3.26c2.6-1.16,2.65,1.55,2.37,3.33-.06.37-.16.74-.22,1.11-.93-.19-1.87-.32-2.81-.44-.54-.75-1.1-1.48-1.74-2.14v-.07c.72-.67,1.5-1.38,2.4-1.78ZM11.86,14.7l-1.82-.3.63-1.72,1.19,2.03ZM10.03,8.64l1.82-.3-1.18,2.05c-.27-.56-.48-1.15-.65-1.75ZM11.19,11.5c.55-1.15,1.2-2.25,1.91-3.31l.97-.06c.94,0,1.88-.02,2.81.06.05.02.42.61.48.71.53.84,1.04,1.73,1.45,2.64-.54,1.14-1.21,2.22-1.9,3.29-.07.05-.94.05-1.1.06-.57.02-1.1.02-1.67,0-.35-.01-.71,0-1.06-.05-.71-1.06-1.37-2.16-1.91-3.32ZM19.33,12.64l.66,1.72-1.82.3,1.17-2.03ZM18.17,8.31l1.82.34-.63,1.71-1.19-2.05ZM15.01,5.8c.05,0,.6.68.67.77.12.15.32.36.42.52.02.03.05.06.04.1h-2.24s-.04-.04-.04-.04c.12-.16,1.06-1.37,1.15-1.35ZM12.09,3.35c.84.41,1.53,1.06,2.21,1.69v.08c-.64.66-1.2,1.4-1.74,2.14-.94.1-1.88.24-2.81.44-.14-.62-.28-1.25-.33-1.89-.16-1.97.41-3.58,2.67-2.46ZM9.08,14.14c-1.03-.32-2.22-.72-3.04-1.45-1.92-1.69.69-3,2.13-3.52.11-.04.88-.31.92-.28.28.89.63,1.76,1.01,2.62-.39.86-.74,1.73-1.03,2.63ZM12.87,19.19c-1.08.75-2.86,1.55-3.34-.28-.31-1.17,0-2.45.23-3.61.92.21,1.85.34,2.79.44.55.77,1.15,1.49,1.77,2.2-.44.45-.93.88-1.45,1.24ZM15.01,17.23l-1.18-1.39h2.33l-1.15,1.39ZM20.58,18.33c-.34,3.35-3.68.94-4.89-.38.62-.71,1.21-1.44,1.77-2.2.94-.08,1.87-.21,2.79-.44.07.31.14.62.2.93.12.68.2,1.41.13,2.1ZM23.63,12.97c-.8.56-1.79.9-2.72,1.17-.28-.9-.63-1.77-1.01-2.62.39-.86.73-1.73,1.03-2.63.52.13,1.03.31,1.52.53,1.65.73,3.34,2.05,1.18,3.55Z"/>
    <path class="st0" d="M16.87,12.04c.37-1.37-.73-2.61-2.13-2.46-1.5.16-2.19,2.02-1.24,3.17.99,1.19,2.96.78,3.36-.72Z"/>
  </g>
</svg>